<svg xmlns="http://www.w3.org/2000/svg" xmlns:xlink="http://www.w3.org/1999/xlink" width="500" zoomAndPan="magnify" viewBox="0 0 375 374.999991" height="500" preserveAspectRatio="xMidYMid meet" version="1.0"><defs><g/><clipPath id="4c964ffab3"><path d="M 70 14 L 284 14 L 284 199.5 L 70 199.5 Z M 70 14 " clip-rule="nonzero"/></clipPath><clipPath id="83cc417316"><path d="M 57.894531 202 L 317.191406 202 L 317.191406 302.859375 L 57.894531 302.859375 Z M 57.894531 202 " clip-rule="nonzero"/></clipPath><clipPath id="34ceda0620"><path d="M 239 193.359375 L 278 193.359375 L 278 206 L 239 206 Z M 239 193.359375 " clip-rule="nonzero"/></clipPath></defs><path fill="#532b88" d="M 155.234375 30.539062 C 155.234375 31.449219 155.144531 32.351562 154.964844 33.246094 C 154.789062 34.140625 154.523438 35.011719 154.175781 35.851562 C 153.828125 36.695312 153.398438 37.496094 152.890625 38.253906 C 152.386719 39.011719 151.808594 39.714844 151.164062 40.359375 C 150.519531 41.003906 149.820312 41.578125 149.058594 42.085938 C 148.300781 42.59375 147.5 43.019531 146.660156 43.367188 C 145.816406 43.71875 144.949219 43.980469 144.054688 44.160156 C 143.160156 44.335938 142.257812 44.425781 141.34375 44.425781 C 140.433594 44.425781 139.527344 44.335938 138.632812 44.160156 C 137.742188 43.980469 136.871094 43.71875 136.03125 43.367188 C 135.1875 43.019531 134.386719 42.59375 133.628906 42.085938 C 132.871094 41.578125 132.167969 41.003906 131.523438 40.359375 C 130.878906 39.714844 130.304688 39.011719 129.796875 38.253906 C 129.289062 37.496094 128.863281 36.695312 128.511719 35.851562 C 128.164062 35.011719 127.902344 34.140625 127.722656 33.246094 C 127.542969 32.351562 127.457031 31.449219 127.457031 30.539062 C 127.457031 29.625 127.542969 28.722656 127.722656 27.828125 C 127.902344 26.933594 128.164062 26.066406 128.511719 25.222656 C 128.863281 24.378906 129.289062 23.578125 129.796875 22.820312 C 130.304688 22.0625 130.878906 21.363281 131.523438 20.71875 C 132.167969 20.074219 132.871094 19.496094 133.628906 18.988281 C 134.386719 18.484375 135.1875 18.054688 136.03125 17.707031 C 136.871094 17.359375 137.742188 17.09375 138.632812 16.917969 C 139.527344 16.738281 140.433594 16.648438 141.34375 16.648438 C 142.257812 16.648438 143.160156 16.738281 144.054688 16.917969 C 144.949219 17.09375 145.816406 17.359375 146.660156 17.707031 C 147.5 18.054688 148.300781 18.484375 149.058594 18.988281 C 149.820312 19.496094 150.519531 20.070312 151.164062 20.71875 C 151.808594 21.363281 152.386719 22.0625 152.890625 22.820312 C 153.398438 23.578125 153.828125 24.378906 154.175781 25.222656 C 154.523438 26.066406 154.789062 26.933594 154.964844 27.828125 C 155.144531 28.722656 155.234375 29.625 155.234375 30.539062 Z M 155.234375 30.539062 " fill-opacity="1" fill-rule="nonzero"/><path fill="#2f184a" d="M 248.964844 59.359375 C 248.328125 58.40625 247.683594 57.441406 247.042969 56.496094 C 232.542969 35.121094 231.699219 22.457031 244.1875 13.65625 C 245.152344 12.972656 246.03125 12.265625 246.714844 11.648438 L 249.488281 15.300781 C 245.890625 16.789062 243.734375 18.640625 241.875 21.570312 C 237.519531 28.433594 239.019531 35.710938 247.8125 50.410156 C 248.929688 52.277344 250.722656 54.695312 252.890625 57.34375 C 252.371094 57.59375 251.84375 57.832031 251.328125 58.09375 C 250.53125 58.496094 249.746094 58.925781 248.964844 59.359375 Z M 248.964844 59.359375 " fill-opacity="1" fill-rule="nonzero"/><path fill="#9a71cf" d="M 255.320312 15.128906 C 255.710938 14.863281 256.082031 14.578125 256.4375 14.273438 C 256.789062 13.96875 257.113281 13.648438 257.414062 13.3125 C 257.714844 12.976562 257.984375 12.632812 258.21875 12.28125 C 258.457031 11.929688 258.65625 11.578125 258.820312 11.222656 C 258.984375 10.867188 259.105469 10.515625 259.191406 10.171875 C 259.273438 9.828125 259.316406 9.496094 259.320312 9.175781 C 259.320312 8.855469 259.28125 8.550781 259.199219 8.265625 C 259.117188 7.980469 258.996094 7.71875 258.835938 7.480469 L 257.695312 5.789062 C 257.535156 5.550781 257.335938 5.339844 257.105469 5.15625 C 256.871094 4.976562 256.605469 4.824219 256.304688 4.707031 C 256.007812 4.585938 255.683594 4.503906 255.332031 4.449219 C 254.980469 4.398438 254.609375 4.382812 254.21875 4.402344 C 253.832031 4.421875 253.425781 4.472656 253.011719 4.558594 C 252.597656 4.648438 252.179688 4.765625 251.757812 4.921875 C 251.332031 5.074219 250.914062 5.253906 250.5 5.46875 C 250.082031 5.679688 249.679688 5.917969 249.289062 6.183594 C 248.898438 6.445312 248.523438 6.730469 248.171875 7.035156 C 247.820312 7.34375 247.492188 7.664062 247.191406 7.996094 C 246.890625 8.332031 246.625 8.675781 246.386719 9.027344 C 246.152344 9.378906 245.953125 9.734375 245.789062 10.085938 C 245.625 10.441406 245.5 10.792969 245.417969 11.136719 C 245.332031 11.480469 245.289062 11.816406 245.289062 12.136719 C 245.289062 12.457031 245.328125 12.757812 245.410156 13.042969 C 245.488281 13.328125 245.609375 13.589844 245.769531 13.828125 L 246.914062 15.523438 C 247.074219 15.761719 247.269531 15.96875 247.503906 16.152344 C 247.738281 16.335938 248.003906 16.484375 248.300781 16.605469 C 248.601562 16.722656 248.925781 16.808594 249.277344 16.859375 C 249.625 16.910156 249.996094 16.925781 250.386719 16.910156 C 250.777344 16.890625 251.179688 16.835938 251.59375 16.75 C 252.011719 16.664062 252.429688 16.542969 252.851562 16.390625 C 253.273438 16.238281 253.695312 16.054688 254.109375 15.84375 C 254.523438 15.628906 254.929688 15.390625 255.320312 15.128906 Z M 255.320312 15.128906 " fill-opacity="1" fill-rule="evenodd"/><path fill="#2f184a" d="M 300.324219 57.699219 C 300.957031 56.746094 301.601562 55.78125 302.242188 54.835938 C 316.742188 33.460938 317.589844 20.796875 305.101562 11.992188 C 304.132812 11.3125 303.257812 10.605469 302.574219 9.984375 L 299.800781 13.640625 C 303.394531 15.128906 305.550781 16.980469 307.414062 19.910156 C 311.765625 26.769531 310.269531 34.046875 301.472656 48.75 C 300.355469 50.617188 298.5625 53.03125 296.394531 55.683594 C 296.917969 55.933594 297.441406 56.171875 297.957031 56.433594 C 298.753906 56.835938 299.539062 57.265625 300.324219 57.699219 Z M 300.324219 57.699219 " fill-opacity="1" fill-rule="nonzero"/><path fill="#9a71cf" d="M 293.96875 13.464844 C 293.574219 13.203125 293.203125 12.917969 292.851562 12.613281 C 292.5 12.308594 292.171875 11.988281 291.871094 11.652344 C 291.570312 11.316406 291.304688 10.972656 291.066406 10.621094 C 290.832031 10.269531 290.628906 9.917969 290.46875 9.5625 C 290.304688 9.207031 290.179688 8.855469 290.097656 8.511719 C 290.011719 8.167969 289.96875 7.835938 289.96875 7.511719 C 289.964844 7.191406 290.007812 6.890625 290.085938 6.605469 C 290.167969 6.320312 290.289062 6.058594 290.449219 5.820312 L 291.589844 4.125 C 291.753906 3.886719 291.949219 3.679688 292.183594 3.496094 C 292.417969 3.316406 292.683594 3.164062 292.980469 3.046875 C 293.277344 2.925781 293.601562 2.839844 293.953125 2.789062 C 294.304688 2.738281 294.675781 2.722656 295.066406 2.742188 C 295.457031 2.757812 295.859375 2.8125 296.273438 2.898438 C 296.6875 2.984375 297.109375 3.105469 297.53125 3.257812 C 297.953125 3.410156 298.375 3.59375 298.789062 3.808594 C 299.203125 4.019531 299.605469 4.257812 300 4.523438 C 300.390625 4.785156 300.761719 5.070312 301.113281 5.375 C 301.46875 5.679688 301.792969 6 302.09375 6.335938 C 302.394531 6.671875 302.664062 7.015625 302.898438 7.367188 C 303.136719 7.71875 303.335938 8.070312 303.5 8.425781 C 303.660156 8.78125 303.785156 9.132812 303.871094 9.476562 C 303.953125 9.820312 303.996094 10.152344 303.996094 10.472656 C 304 10.796875 303.960938 11.097656 303.878906 11.382812 C 303.796875 11.667969 303.675781 11.929688 303.515625 12.167969 L 302.375 13.859375 C 302.214844 14.097656 302.015625 14.308594 301.78125 14.492188 C 301.550781 14.671875 301.28125 14.824219 300.984375 14.941406 C 300.6875 15.0625 300.363281 15.148438 300.011719 15.199219 C 299.660156 15.25 299.289062 15.265625 298.898438 15.246094 C 298.507812 15.230469 298.105469 15.175781 297.691406 15.089844 C 297.277344 15 296.859375 14.882812 296.433594 14.730469 C 296.011719 14.574219 295.59375 14.394531 295.175781 14.179688 C 294.761719 13.96875 294.359375 13.730469 293.96875 13.464844 Z M 293.96875 13.464844 " fill-opacity="1" fill-rule="evenodd"/><path fill="#9a71cf" d="M 273.585938 79.5 C 272.992188 79.460938 272.449219 79.21875 271.867188 79.03125 C 271.738281 78.980469 271.613281 78.925781 271.484375 78.871094 C 271.34375 78.808594 271.207031 78.75 271.066406 78.683594 C 270.925781 78.621094 270.785156 78.554688 270.644531 78.492188 C 270.503906 78.425781 270.363281 78.359375 270.222656 78.289062 C 270.082031 78.21875 269.9375 78.152344 269.796875 78.078125 C 269.65625 78.007812 269.511719 77.9375 269.371094 77.863281 C 269.226562 77.789062 269.085938 77.714844 268.941406 77.636719 C 268.652344 77.484375 268.363281 77.328125 268.074219 77.167969 C 267.785156 77.007812 267.492188 76.84375 267.199219 76.675781 C 266.90625 76.507812 266.613281 76.332031 266.320312 76.15625 C 266.023438 75.980469 265.726562 75.804688 265.429688 75.625 C 265.136719 75.441406 264.835938 75.257812 264.539062 75.070312 C 264.238281 74.886719 263.941406 74.695312 263.640625 74.507812 C 263.339844 74.316406 263.042969 74.125 262.742188 73.929688 C 262.441406 73.734375 262.140625 73.542969 261.839844 73.347656 C 261.691406 73.25 261.539062 73.152344 261.390625 73.054688 C 259.644531 71.6875 257.847656 70.140625 255.992188 68.367188 C 252.914062 65.425781 249.796875 62.007812 248.308594 60 C 247.949219 59.492188 247.753906 58.867188 247.761719 58.242188 C 247.769531 57.621094 247.976562 57 248.347656 56.5 C 248.871094 55.792969 249.722656 55.335938 250.601562 55.292969 C 251.484375 55.246094 252.375 55.613281 252.964844 56.265625 C 259.367188 63.15625 266.304688 69.6875 269.445312 71.265625 C 273.660156 73.390625 279.121094 73.636719 282.558594 71.859375 C 286.128906 70.011719 290.757812 64.5 295.292969 56.699219 C 295.753906 55.902344 296.214844 55.136719 296.65625 54.421875 C 297.074219 53.742188 297.765625 53.230469 298.539062 53.027344 C 299.3125 52.824219 300.160156 52.929688 300.863281 53.316406 C 301.472656 53.652344 301.96875 54.195312 302.242188 54.839844 C 302.519531 55.480469 302.574219 56.214844 302.394531 56.890625 C 300.414062 60.75 297.292969 65.335938 294.042969 69.304688 C 293.636719 69.800781 293.230469 70.285156 292.820312 70.757812 C 289.964844 74.078125 288.15625 76.507812 284.914062 78.019531 C 281.464844 79.628906 277.386719 79.757812 273.585938 79.5 Z M 273.585938 79.5 " fill-opacity="1" fill-rule="nonzero"/><g clip-path="url(#4c964ffab3)"><path fill="#9a71cf" d="M 141.746094 14.507812 C 135.671875 14.507812 128.75 18.867188 126.605469 24.042969 C 125.710938 26.203125 125.039062 26.527344 120.273438 27.066406 C 79.132812 31.738281 57.621094 76.226562 79.054688 112.304688 C 86.605469 125.015625 97.800781 134.859375 126.949219 154.421875 C 137.355469 161.40625 149.449219 170.109375 153.820312 173.757812 C 161.214844 179.925781 171.292969 191.109375 174.78125 197.015625 C 175.601562 198.40625 176.484375 199.53125 176.738281 199.507812 C 176.992188 199.488281 179.144531 196.714844 181.523438 193.34375 C 190.605469 180.460938 200.804688 171.597656 225.1875 155.414062 C 258.519531 133.285156 270.691406 121.847656 277.96875 105.796875 C 282.535156 95.722656 283.898438 85.289062 282.660156 75.441406 L 275.738281 75.441406 C 277.160156 85.597656 275.296875 96.300781 269.980469 106.285156 C 263.136719 119.128906 251.964844 129.253906 224.324219 147.660156 C 200.050781 163.828125 190.632812 171.355469 182.121094 181.390625 C 179.496094 184.480469 177.097656 187.007812 176.792969 187.007812 C 176.488281 187.007812 173.789062 184.164062 170.796875 180.6875 C 163.03125 171.664062 152.382812 163.136719 131.484375 149.195312 C 103.34375 130.425781 92.167969 120.777344 85.21875 109.257812 C 73.238281 89.398438 75.179688 66.007812 90.148438 49.792969 C 98.636719 40.597656 108.496094 35.488281 120.695312 33.964844 C 125.371094 33.378906 125.539062 33.429688 126.082031 35.589844 C 126.859375 38.695312 131.660156 43.933594 135.003906 45.332031 C 144.582031 49.335938 156.148438 42.804688 157.515625 32.625 C 158.707031 23.726562 150.683594 14.507812 141.746094 14.507812 Z M 141.519531 17.398438 C 142.378906 17.398438 143.230469 17.484375 144.070312 17.648438 C 144.914062 17.816406 145.730469 18.066406 146.523438 18.394531 C 147.316406 18.722656 148.070312 19.125 148.785156 19.601562 C 149.496094 20.078125 150.160156 20.621094 150.765625 21.226562 C 151.371094 21.835938 151.914062 22.496094 152.390625 23.207031 C 152.867188 23.921875 153.269531 24.675781 153.597656 25.46875 C 153.925781 26.261719 154.175781 27.078125 154.34375 27.921875 C 154.511719 28.761719 154.59375 29.613281 154.59375 30.472656 C 154.59375 31.328125 154.511719 32.179688 154.34375 33.023438 C 154.175781 33.863281 153.925781 34.679688 153.597656 35.472656 C 153.269531 36.265625 152.867188 37.019531 152.390625 37.734375 C 151.914062 38.445312 151.371094 39.105469 150.765625 39.714844 C 150.15625 40.320312 149.496094 40.863281 148.785156 41.339844 C 148.070312 41.816406 147.316406 42.21875 146.523438 42.546875 C 145.730469 42.875 144.914062 43.125 144.070312 43.292969 C 143.230469 43.457031 142.378906 43.542969 141.519531 43.542969 C 140.664062 43.542969 139.8125 43.457031 138.972656 43.289062 C 138.128906 43.125 137.3125 42.875 136.519531 42.546875 C 135.726562 42.21875 134.972656 41.816406 134.261719 41.339844 C 133.546875 40.863281 132.886719 40.320312 132.28125 39.714844 C 131.671875 39.105469 131.128906 38.445312 130.652344 37.734375 C 130.175781 37.019531 129.773438 36.265625 129.445312 35.472656 C 129.117188 34.679688 128.871094 33.863281 128.703125 33.019531 C 128.535156 32.179688 128.449219 31.328125 128.449219 30.472656 C 128.449219 29.613281 128.535156 28.761719 128.703125 27.921875 C 128.871094 27.078125 129.117188 26.261719 129.445312 25.46875 C 129.773438 24.675781 130.175781 23.921875 130.652344 23.210938 C 131.128906 22.496094 131.671875 21.835938 132.277344 21.226562 C 132.886719 20.621094 133.546875 20.078125 134.257812 19.601562 C 134.972656 19.125 135.726562 18.722656 136.519531 18.394531 C 137.3125 18.066406 138.128906 17.816406 138.972656 17.648438 C 139.8125 17.484375 140.664062 17.398438 141.519531 17.398438 Z M 141.519531 17.398438 " fill-opacity="1" fill-rule="nonzero"/></g><path fill="#c7b0e3" d="M 142.132812 17.953125 C 140.644531 17.914062 139.183594 18.199219 137.757812 18.59375 C 137.28125 18.773438 136.667969 18.75 136.308594 19.144531 C 136.101562 19.648438 136.636719 20.058594 136.859375 20.457031 C 137.921875 21.867188 138.941406 23.394531 139.359375 25.113281 C 139.800781 26.40625 140.105469 27.773438 140.785156 28.96875 C 141.054688 29.433594 141.699219 29.652344 142.152344 29.308594 C 143.027344 28.699219 143.464844 27.667969 144.019531 26.789062 C 144.691406 25.582031 145.429688 24.414062 146.210938 23.277344 C 146.726562 22.351562 147.378906 21.449219 147.566406 20.390625 C 147.625 19.484375 146.675781 19.039062 145.988281 18.710938 C 144.78125 18.148438 143.460938 17.910156 142.132812 17.953125 Z M 142.132812 17.953125 " fill-opacity="1" fill-rule="evenodd"/><path fill="#c7b0e3" d="M 141.339844 29.886719 C 140.777344 30.175781 140.453125 30.785156 140.003906 31.210938 C 138.023438 33.523438 135.902344 35.738281 134.210938 38.277344 C 133.851562 38.796875 133.402344 39.519531 133.851562 40.121094 C 134.578125 41.101562 135.726562 41.660156 136.785156 42.207031 C 137.6875 42.585938 138.652344 43.089844 139.65625 42.933594 C 140.5625 42.699219 140.835938 41.648438 140.886719 40.828125 C 141.035156 37.46875 141.460938 34.148438 141.863281 30.808594 C 141.953125 30.40625 141.925781 29.796875 141.339844 29.886719 Z M 141.339844 29.886719 " fill-opacity="1" fill-rule="evenodd"/><path fill="#532b88" d="M 153.214844 144.574219 C 153.597656 145.414062 154.039062 146.222656 154.539062 147.003906 C 155.039062 147.78125 155.59375 148.519531 156.199219 149.21875 C 156.804688 149.917969 157.457031 150.570312 158.15625 151.175781 C 158.855469 151.78125 159.59375 152.335938 160.375 152.835938 C 161.152344 153.332031 161.960938 153.777344 162.804688 154.160156 C 163.644531 154.542969 164.511719 154.863281 165.398438 155.125 C 166.289062 155.382812 167.1875 155.578125 168.105469 155.710938 C 169.019531 155.839844 169.941406 155.902344 170.867188 155.902344 C 173.660156 155.90625 176.324219 155.324219 178.863281 154.160156 L 232.632812 129.675781 C 233.210938 129.410156 233.773438 129.117188 234.324219 128.800781 C 234.871094 128.480469 235.402344 128.136719 235.917969 127.765625 C 236.433594 127.390625 236.929688 126.996094 237.40625 126.578125 C 237.878906 126.15625 238.335938 125.714844 238.765625 125.25 C 239.199219 124.785156 239.609375 124.300781 239.992188 123.792969 C 240.378906 123.289062 240.738281 122.765625 241.070312 122.226562 C 241.402344 121.6875 241.710938 121.128906 241.988281 120.558594 C 242.265625 119.988281 242.515625 119.40625 242.738281 118.8125 C 242.960938 118.214844 243.152344 117.613281 243.3125 117 C 243.476562 116.382812 243.605469 115.765625 243.707031 115.136719 C 243.808594 114.511719 243.878906 113.878906 243.917969 113.246094 C 243.957031 112.613281 243.964844 111.976562 243.941406 111.34375 C 243.917969 110.710938 243.863281 110.078125 243.777344 109.449219 C 243.691406 108.820312 243.578125 108.195312 243.429688 107.578125 C 243.28125 106.960938 243.105469 106.351562 242.898438 105.75 C 242.691406 105.152344 242.457031 104.5625 242.191406 103.984375 L 241.015625 101.425781 C 240.753906 100.847656 240.460938 100.285156 240.144531 99.734375 C 239.828125 99.1875 239.480469 98.65625 239.113281 98.140625 C 238.742188 97.625 238.347656 97.128906 237.925781 96.652344 C 237.507812 96.175781 237.066406 95.722656 236.601562 95.289062 C 236.136719 94.855469 235.652344 94.445312 235.148438 94.0625 C 234.644531 93.675781 234.125 93.316406 233.585938 92.980469 C 233.046875 92.648438 232.492188 92.339844 231.921875 92.0625 C 231.351562 91.78125 230.769531 91.53125 230.175781 91.308594 C 229.582031 91.085938 228.976562 90.894531 228.363281 90.730469 C 227.75 90.566406 227.128906 90.433594 226.503906 90.332031 C 225.878906 90.230469 225.246094 90.160156 224.613281 90.121094 C 223.980469 90.078125 223.347656 90.070312 222.714844 90.09375 C 222.078125 90.113281 221.449219 90.167969 220.820312 90.253906 C 220.191406 90.335938 219.566406 90.449219 218.949219 90.597656 C 218.332031 90.742188 217.722656 90.917969 217.121094 91.121094 C 216.519531 91.328125 215.933594 91.5625 215.355469 91.824219 L 161.625 116.339844 C 161.046875 116.601562 160.484375 116.890625 159.9375 117.210938 C 159.386719 117.53125 158.855469 117.875 158.339844 118.246094 C 157.828125 118.617188 157.332031 119.011719 156.855469 119.429688 C 156.378906 119.847656 155.925781 120.292969 155.492188 120.753906 C 155.058594 121.21875 154.652344 121.703125 154.265625 122.207031 C 153.878906 122.710938 153.519531 123.234375 153.1875 123.773438 C 152.855469 124.3125 152.546875 124.867188 152.269531 125.4375 C 151.988281 126.007812 151.738281 126.589844 151.515625 127.183594 C 151.292969 127.777344 151.101562 128.382812 150.9375 128.996094 C 150.777344 129.609375 150.644531 130.226562 150.542969 130.855469 C 150.441406 131.480469 150.371094 132.109375 150.332031 132.742188 C 150.289062 133.375 150.28125 134.007812 150.304688 134.644531 C 150.324219 135.277344 150.378906 135.910156 150.464844 136.539062 C 150.546875 137.167969 150.664062 137.789062 150.808594 138.40625 C 150.953125 139.023438 151.128906 139.632812 151.335938 140.234375 C 151.542969 140.832031 151.777344 141.421875 152.039062 142 Z M 217.652344 96.886719 C 219.460938 96.058594 221.359375 95.644531 223.351562 95.644531 C 225.03125 95.648438 226.660156 95.949219 228.234375 96.542969 C 229.953125 97.175781 231.484375 98.117188 232.828125 99.367188 C 234.167969 100.613281 235.21875 102.070312 235.980469 103.734375 L 237.15625 106.308594 C 237.53125 107.136719 237.824219 107.996094 238.03125 108.882812 C 238.238281 109.769531 238.355469 110.664062 238.386719 111.574219 C 238.414062 112.484375 238.355469 113.386719 238.207031 114.285156 C 238.058594 115.183594 237.824219 116.058594 237.5 116.910156 C 237.179688 117.761719 236.78125 118.574219 236.296875 119.34375 C 235.816406 120.117188 235.265625 120.835938 234.640625 121.496094 C 234.019531 122.160156 233.335938 122.757812 232.59375 123.285156 C 231.855469 123.8125 231.070312 124.265625 230.238281 124.640625 L 209.738281 134.003906 C 210.144531 131.734375 210.242188 129.453125 210.035156 127.15625 C 209.824219 124.859375 209.316406 122.632812 208.507812 120.476562 C 207.429688 117.515625 205.878906 114.828125 203.855469 112.414062 C 201.832031 110 199.460938 108 196.734375 106.421875 Z M 156.785156 129.132812 C 157.410156 127.410156 158.347656 125.875 159.597656 124.527344 C 160.84375 123.183594 162.304688 122.128906 163.976562 121.375 L 189.96875 109.519531 C 191.507812 110 192.964844 110.652344 194.351562 111.472656 C 195.734375 112.296875 197.007812 113.265625 198.164062 114.382812 C 199.324219 115.5 200.335938 116.738281 201.207031 118.089844 C 202.078125 119.445312 202.78125 120.878906 203.320312 122.398438 C 204.191406 124.761719 204.613281 127.203125 204.585938 129.722656 C 204.558594 132.242188 204.085938 134.675781 203.167969 137.019531 L 176.566406 149.125 C 175.738281 149.5 174.882812 149.792969 174 150 C 173.117188 150.207031 172.222656 150.328125 171.316406 150.359375 C 170.40625 150.390625 169.507812 150.332031 168.609375 150.1875 C 167.714844 150.039062 166.839844 149.808594 165.992188 149.492188 C 165.140625 149.171875 164.328125 148.773438 163.558594 148.296875 C 162.785156 147.820312 162.066406 147.273438 161.402344 146.652344 C 160.738281 146.035156 160.140625 145.355469 159.613281 144.621094 C 159.082031 143.882812 158.628906 143.101562 158.25 142.277344 L 157.074219 139.703125 C 156.3125 138.035156 155.902344 136.285156 155.84375 134.453125 C 155.78125 132.621094 156.078125 130.847656 156.726562 129.132812 Z M 156.785156 129.132812 " fill-opacity="1" fill-rule="nonzero"/><path fill="#532b88" d="M 171.183594 131.789062 L 171.265625 131.789062 C 171.640625 131.78125 171.996094 131.699219 172.332031 131.542969 C 172.671875 131.390625 172.96875 131.175781 173.21875 130.902344 C 173.472656 130.628906 173.664062 130.316406 173.789062 129.96875 C 173.914062 129.617188 173.96875 129.257812 173.953125 128.886719 L 173.953125 126.660156 L 191.382812 118.71875 C 191.714844 118.566406 192.007812 118.355469 192.257812 118.085938 C 192.507812 117.820312 192.695312 117.511719 192.824219 117.167969 C 192.953125 116.824219 193.011719 116.46875 193 116.101562 C 192.984375 115.734375 192.902344 115.386719 192.75 115.050781 C 192.597656 114.71875 192.386719 114.425781 192.121094 114.175781 C 191.851562 113.925781 191.546875 113.738281 191.203125 113.609375 C 190.859375 113.480469 190.503906 113.421875 190.136719 113.433594 C 189.769531 113.449219 189.417969 113.53125 189.085938 113.683594 L 169.996094 122.382812 C 169.488281 122.613281 169.089844 122.964844 168.796875 123.433594 C 168.503906 123.902344 168.363281 124.417969 168.375 124.972656 L 168.488281 129.039062 C 168.488281 129.398438 168.558594 129.742188 168.695312 130.078125 C 168.832031 130.410156 169.027344 130.703125 169.277344 130.960938 C 169.53125 131.21875 169.820312 131.417969 170.148438 131.5625 C 170.480469 131.707031 170.824219 131.78125 171.183594 131.789062 Z M 171.183594 131.789062 " fill-opacity="1" fill-rule="nonzero"/><path fill="#532b88" d="M 168.914062 143.121094 C 169.28125 143.121094 169.636719 143.050781 169.972656 142.910156 C 170.3125 142.769531 170.613281 142.570312 170.871094 142.308594 C 171.132812 142.050781 171.332031 141.75 171.472656 141.414062 C 171.613281 141.074219 171.683594 140.71875 171.683594 140.355469 L 171.683594 135.886719 C 171.683594 135.519531 171.613281 135.164062 171.472656 134.828125 C 171.332031 134.488281 171.132812 134.1875 170.871094 133.929688 C 170.613281 133.667969 170.3125 133.46875 169.972656 133.328125 C 169.636719 133.1875 169.28125 133.117188 168.914062 133.117188 C 168.550781 133.117188 168.195312 133.1875 167.855469 133.328125 C 167.519531 133.46875 167.21875 133.667969 166.960938 133.929688 C 166.699219 134.1875 166.5 134.488281 166.359375 134.828125 C 166.21875 135.164062 166.148438 135.519531 166.148438 135.886719 L 166.148438 140.355469 C 166.148438 140.71875 166.21875 141.074219 166.359375 141.414062 C 166.5 141.75 166.699219 142.050781 166.960938 142.308594 C 167.21875 142.570312 167.519531 142.769531 167.855469 142.910156 C 168.195312 143.050781 168.550781 143.121094 168.914062 143.121094 Z M 168.914062 143.121094 " fill-opacity="1" fill-rule="nonzero"/><path fill="#532b88" d="M 214 89.558594 L 217.734375 85.40625 C 216.78125 84.546875 215.753906 83.792969 214.648438 83.136719 L 186.980469 66.632812 L 163.851562 52.925781 C 163.308594 52.601562 162.746094 52.304688 162.171875 52.035156 C 161.597656 51.769531 161.007812 51.527344 160.410156 51.316406 C 159.8125 51.105469 159.207031 50.925781 158.589844 50.773438 C 157.972656 50.621094 157.351562 50.503906 156.722656 50.410156 C 156.09375 50.320312 155.460938 50.261719 154.828125 50.234375 C 154.195312 50.207031 153.558594 50.210938 152.925781 50.242188 C 152.292969 50.277344 151.664062 50.34375 151.035156 50.441406 C 150.40625 50.535156 149.785156 50.664062 149.171875 50.820312 C 148.558594 50.976562 147.953125 51.164062 147.355469 51.382812 C 146.757812 51.597656 146.175781 51.84375 145.601562 52.117188 C 145.03125 52.394531 144.472656 52.695312 143.929688 53.023438 C 143.386719 53.351562 142.859375 53.707031 142.355469 54.089844 C 141.847656 54.46875 141.359375 54.875 140.890625 55.300781 C 140.421875 55.730469 139.976562 56.183594 139.550781 56.65625 C 139.128906 57.128906 138.730469 57.621094 138.355469 58.132812 C 137.980469 58.644531 137.628906 59.171875 137.304688 59.71875 L 135.921875 62.152344 C 135.601562 62.695312 135.304688 63.253906 135.039062 63.824219 C 134.769531 64.398438 134.53125 64.980469 134.320312 65.578125 C 134.109375 66.171875 133.929688 66.777344 133.777344 67.390625 C 133.625 68.003906 133.503906 68.625 133.414062 69.25 C 133.320312 69.875 133.261719 70.503906 133.230469 71.132812 C 133.203125 71.765625 133.203125 72.394531 133.234375 73.027344 C 133.269531 73.65625 133.332031 74.285156 133.425781 74.910156 C 133.519531 75.535156 133.644531 76.152344 133.796875 76.765625 C 133.953125 77.378906 134.136719 77.984375 134.347656 78.578125 C 134.5625 79.171875 134.804688 79.753906 135.074219 80.324219 C 135.34375 80.898438 135.640625 81.453125 135.96875 81.996094 C 136.292969 82.535156 136.640625 83.0625 137.019531 83.570312 C 137.394531 84.078125 137.796875 84.566406 138.21875 85.03125 C 138.644531 85.5 139.089844 85.949219 139.554688 86.371094 C 140.023438 86.796875 140.511719 87.199219 141.019531 87.574219 C 141.523438 87.953125 142.050781 88.304688 142.589844 88.628906 L 165.527344 102.285156 L 168.363281 97.539062 L 145.480469 83.871094 C 144.703125 83.402344 143.980469 82.863281 143.308594 82.253906 C 142.636719 81.644531 142.027344 80.976562 141.488281 80.25 C 140.945312 79.519531 140.480469 78.746094 140.09375 77.925781 C 139.703125 77.109375 139.398438 76.257812 139.171875 75.378906 C 138.949219 74.5 138.8125 73.605469 138.765625 72.699219 C 138.71875 71.792969 138.757812 70.894531 138.886719 69.996094 C 139.011719 69.097656 139.226562 68.21875 139.527344 67.363281 C 139.828125 66.507812 140.207031 65.6875 140.667969 64.90625 L 142.050781 62.484375 C 142.519531 61.707031 143.058594 60.984375 143.667969 60.3125 C 144.277344 59.636719 144.945312 59.03125 145.675781 58.492188 C 146.402344 57.949219 147.175781 57.484375 147.996094 57.09375 C 148.816406 56.707031 149.664062 56.398438 150.542969 56.175781 C 151.421875 55.953125 152.316406 55.816406 153.222656 55.769531 C 154.128906 55.71875 155.03125 55.761719 155.929688 55.886719 C 156.828125 56.015625 157.703125 56.230469 158.558594 56.53125 C 159.414062 56.832031 160.234375 57.210938 161.015625 57.671875 L 178.863281 68.308594 C 175.878906 70.167969 173.40625 72.554688 171.449219 75.472656 C 167.296875 81.492188 165.84375 88.933594 167.519531 94.839844 L 172.84375 93.332031 C 171.613281 88.988281 172.84375 83.179688 176.011719 78.546875 C 177.042969 76.988281 178.28125 75.621094 179.726562 74.441406 C 181.171875 73.261719 182.761719 72.324219 184.492188 71.628906 L 211.746094 87.855469 C 212.554688 88.347656 213.304688 88.914062 214 89.558594 Z M 214 89.558594 " fill-opacity="1" fill-rule="nonzero"/><path fill="#532b88" d="M 185.648438 81.847656 L 188.332031 77.007812 L 207.835938 87.824219 L 205.152344 92.664062 Z M 185.648438 81.847656 " fill-opacity="1" fill-rule="nonzero"/><g clip-path="url(#83cc417316)"><path fill="#532b88" d="M 315.96875 210.96875 C 311.929688 207.214844 301.9375 203.617188 278.566406 216.601562 C 268.453125 222.90625 262.972656 226.953125 260.203125 229.191406 C 258.425781 230.625 256.25 231.476562 253.972656 231.632812 C 241.796875 232.480469 203.351562 236.1875 190.175781 235.925781 C 188.253906 235.886719 187.605469 233.292969 188.898438 232.28125 C 189.863281 231.527344 191.347656 231.15625 193.464844 230.492188 C 200.9375 228.160156 242.476562 228.355469 241.566406 212.816406 C 240.695312 197.917969 210.914062 203.414062 202.074219 205.296875 C 198.644531 206.027344 194.828125 206.597656 191.300781 207.023438 C 191.300781 207.023438 178.488281 207.589844 172.179688 206.078125 C 159.039062 202.644531 131.394531 197.074219 113.925781 211.222656 C 99.855469 222.621094 93.613281 230.132812 90.890625 234.230469 C 89.050781 236.996094 86.53125 239.238281 83.585938 240.773438 L 58.976562 258.09375 C 57.679688 259.007812 57.519531 260.863281 58.640625 261.984375 L 99.03125 302.375 C 100.132812 303.476562 101.957031 303.34375 102.882812 302.089844 C 108.4375 294.578125 128.308594 272.578125 169.738281 273.914062 C 219.644531 275.523438 219.96875 274.558594 230.914062 268.761719 C 239.507812 264.214844 259.941406 256.898438 268.34375 253.957031 C 270.820312 253.09375 273.117188 251.800781 275.140625 250.136719 L 315.699219 216.824219 C 317.582031 215.375 317.707031 212.585938 315.96875 210.96875 " fill-opacity="1" fill-rule="nonzero"/></g><g clip-path="url(#34ceda0620)"><path fill="#532b88" d="M 239.171875 201.132812 C 240.457031 201.851562 241.578125 202.695312 242.523438 203.640625 C 243.109375 204.21875 243.628906 204.847656 244.085938 205.511719 C 247.066406 204.097656 250.390625 202.597656 253.976562 201.046875 L 254.027344 201.027344 C 263.035156 197.660156 270.804688 195.859375 277.15625 195.667969 C 275.078125 194.566406 272.484375 193.917969 269.414062 193.730469 C 262.910156 193.347656 254.453125 195.078125 244.273438 198.882812 C 242.507812 199.644531 240.796875 200.398438 239.171875 201.132812 " fill-opacity="1" fill-rule="nonzero"/></g><path fill="#532b88" d="M 233.859375 227.023438 C 236.246094 226.84375 238.527344 226.664062 240.652344 226.5 L 240.679688 226.496094 C 246.378906 226.054688 251.300781 225.667969 254.441406 225.472656 C 254.972656 225.4375 255.507812 225.332031 256.027344 225.152344 C 256.695312 224.925781 257.304688 224.589844 257.84375 224.15625 C 260.6875 221.863281 266.160156 217.84375 276.078125 211.699219 L 276.191406 211.632812 L 276.28125 211.582031 C 279.113281 210.019531 281.878906 208.632812 284.5 207.464844 C 287.089844 206.355469 289.570312 205.449219 291.878906 204.769531 C 292.199219 204.675781 292.519531 204.585938 292.839844 204.5 C 292.472656 204.179688 292.070312 203.875 291.652344 203.601562 C 289.285156 202.046875 286.121094 201.195312 282.25 201.066406 C 276.0625 200.863281 268.167969 202.515625 258.785156 205.96875 C 254.515625 207.796875 250.664062 209.535156 247.320312 211.148438 C 247.335938 211.296875 247.347656 211.449219 247.355469 211.59375 C 247.796875 218.453125 243.261719 223.636719 233.859375 227.023438 " fill-opacity="1" fill-rule="nonzero"/><g fill="#532b88" fill-opacity="1"><g transform="translate(8.874059, 363.198982)"><g><path d="M 24.078125 -19.1875 L 15.46875 -19.1875 L 15.46875 0 L 4.671875 0 L 4.671875 -52.390625 L 24.140625 -52.390625 C 30.335938 -52.390625 35.113281 -51.007812 38.46875 -48.25 C 41.832031 -45.5 43.515625 -41.601562 43.515625 -36.5625 C 43.515625 -32.988281 42.738281 -30.007812 41.1875 -27.625 C 39.632812 -25.238281 37.289062 -23.335938 34.15625 -21.921875 L 45.484375 -0.5 L 45.484375 0 L 33.90625 0 Z M 15.46875 -27.921875 L 24.1875 -27.921875 C 26.894531 -27.921875 28.992188 -28.609375 30.484375 -29.984375 C 31.972656 -31.367188 32.71875 -33.273438 32.71875 -35.703125 C 32.71875 -38.171875 32.015625 -40.113281 30.609375 -41.53125 C 29.203125 -42.945312 27.046875 -43.65625 24.140625 -43.65625 L 15.46875 -43.65625 Z M 15.46875 -27.921875 "/></g></g></g><g fill="#532b88" fill-opacity="1"><g transform="translate(55.901817, 363.198982)"><g><path d="M 23.421875 -34.328125 L 33.25 -52.390625 L 45.671875 -52.390625 L 30.40625 -26.421875 L 46.0625 0 L 33.5 0 L 23.421875 -18.359375 L 13.34375 0 L 0.796875 0 L 16.453125 -26.421875 L 1.1875 -52.390625 L 13.609375 -52.390625 Z M 23.421875 -34.328125 "/></g></g></g><g fill="#532b88" fill-opacity="1"><g transform="translate(102.713686, 363.198982)"><g><path d="M 46.140625 -6.625 C 44.191406 -4.289062 41.441406 -2.484375 37.890625 -1.203125 C 34.335938 0.078125 30.40625 0.71875 26.09375 0.71875 C 21.5625 0.71875 17.582031 -0.269531 14.15625 -2.25 C 10.738281 -4.226562 8.097656 -7.097656 6.234375 -10.859375 C 4.378906 -14.628906 3.429688 -19.054688 3.390625 -24.140625 L 3.390625 -27.703125 C 3.390625 -32.941406 4.269531 -37.472656 6.03125 -41.296875 C 7.789062 -45.117188 10.332031 -48.046875 13.65625 -50.078125 C 16.976562 -52.109375 20.867188 -53.125 25.328125 -53.125 C 31.546875 -53.125 36.40625 -51.640625 39.90625 -48.671875 C 43.414062 -45.710938 45.492188 -41.398438 46.140625 -35.734375 L 35.625 -35.734375 C 35.144531 -38.734375 34.082031 -40.925781 32.4375 -42.3125 C 30.800781 -43.707031 28.539062 -44.40625 25.65625 -44.40625 C 21.988281 -44.40625 19.191406 -43.023438 17.265625 -40.265625 C 15.347656 -37.503906 14.378906 -33.40625 14.359375 -27.96875 L 14.359375 -24.609375 C 14.359375 -19.117188 15.398438 -14.96875 17.484375 -12.15625 C 19.578125 -9.351562 22.640625 -7.953125 26.671875 -7.953125 C 30.722656 -7.953125 33.613281 -8.816406 35.34375 -10.546875 L 35.34375 -19.578125 L 25.515625 -19.578125 L 25.515625 -27.53125 L 46.140625 -27.53125 Z M 46.140625 -6.625 "/></g></g></g><g fill="#532b88" fill-opacity="1"><g transform="translate(152.90781, 363.198982)"><g><path d="M 34.265625 -10.796875 L 15.328125 -10.796875 L 11.734375 0 L 0.25 0 L 19.75 -52.390625 L 29.765625 -52.390625 L 49.375 0 L 37.890625 0 Z M 18.25 -19.546875 L 31.34375 -19.546875 L 24.765625 -39.15625 Z M 18.25 -19.546875 "/></g></g></g><g fill="#532b88" fill-opacity="1"><g transform="translate(202.490241, 363.198982)"><g><path d="M 15.46875 -8.671875 L 38.40625 -8.671875 L 38.40625 0 L 4.671875 0 L 4.671875 -52.390625 L 15.46875 -52.390625 Z M 15.46875 -8.671875 "/></g></g></g><g fill="#532b88" fill-opacity="1"><g transform="translate(242.393672, 363.198982)"><g><path d="M 16.15625 0 L 5.359375 0 L 5.359375 -52.390625 L 16.15625 -52.390625 Z M 16.15625 0 "/></g></g></g><g fill="#532b88" fill-opacity="1"><g transform="translate(263.874604, 363.198982)"><g><path d="M 47.28125 0 L 36.484375 0 L 15.46875 -34.46875 L 15.46875 0 L 4.671875 0 L 4.671875 -52.390625 L 15.46875 -52.390625 L 36.53125 -17.84375 L 36.53125 -52.390625 L 47.28125 -52.390625 Z M 47.28125 0 "/></g></g></g><g fill="#532b88" fill-opacity="1"><g transform="translate(315.903772, 363.198982)"><g><path d="M 46.140625 -6.625 C 44.191406 -4.289062 41.441406 -2.484375 37.890625 -1.203125 C 34.335938 0.078125 30.40625 0.71875 26.09375 0.71875 C 21.5625 0.71875 17.582031 -0.269531 14.15625 -2.25 C 10.738281 -4.226562 8.097656 -7.097656 6.234375 -10.859375 C 4.378906 -14.628906 3.429688 -19.054688 3.390625 -24.140625 L 3.390625 -27.703125 C 3.390625 -32.941406 4.269531 -37.472656 6.03125 -41.296875 C 7.789062 -45.117188 10.332031 -48.046875 13.65625 -50.078125 C 16.976562 -52.109375 20.867188 -53.125 25.328125 -53.125 C 31.546875 -53.125 36.40625 -51.640625 39.90625 -48.671875 C 43.414062 -45.710938 45.492188 -41.398438 46.140625 -35.734375 L 35.625 -35.734375 C 35.144531 -38.734375 34.082031 -40.925781 32.4375 -42.3125 C 30.800781 -43.707031 28.539062 -44.40625 25.65625 -44.40625 C 21.988281 -44.40625 19.191406 -43.023438 17.265625 -40.265625 C 15.347656 -37.503906 14.378906 -33.40625 14.359375 -27.96875 L 14.359375 -24.609375 C 14.359375 -19.117188 15.398438 -14.96875 17.484375 -12.15625 C 19.578125 -9.351562 22.640625 -7.953125 26.671875 -7.953125 C 30.722656 -7.953125 33.613281 -8.816406 35.34375 -10.546875 L 35.34375 -19.578125 L 25.515625 -19.578125 L 25.515625 -27.53125 L 46.140625 -27.53125 Z M 46.140625 -6.625 "/></g></g></g></svg>