<svg xmlns="http://www.w3.org/2000/svg" xmlns:xlink="http://www.w3.org/1999/xlink" width="500" zoomAndPan="magnify" viewBox="0 0 375 374.999991" height="500" preserveAspectRatio="xMidYMid meet" version="1.0"><defs><clipPath id="ede1b381eb"><path d="M 141 111 L 257.824219 111 L 257.824219 192.980469 L 141 192.980469 Z M 141 111 " clip-rule="nonzero"/></clipPath><clipPath id="260296dff8"><path d="M 27.1875 249.484375 L 347.929688 249.484375 L 347.929688 374.949219 L 27.1875 374.949219 Z M 27.1875 249.484375 " clip-rule="nonzero"/></clipPath><clipPath id="54576c75e9"><path d="M 251 239.175781 L 299 239.175781 L 299 255 L 251 255 Z M 251 239.175781 " clip-rule="nonzero"/></clipPath></defs><path fill="#532b88" d="M 147.589844 37.765625 C 147.589844 38.328125 147.5625 38.890625 147.507812 39.449219 C 147.453125 40.007812 147.371094 40.566406 147.261719 41.117188 C 147.152344 41.667969 147.015625 42.214844 146.851562 42.753906 C 146.6875 43.292969 146.496094 43.820312 146.28125 44.339844 C 146.066406 44.859375 145.828125 45.367188 145.5625 45.863281 C 145.296875 46.359375 145.007812 46.84375 144.695312 47.308594 C 144.382812 47.777344 144.046875 48.230469 143.691406 48.664062 C 143.332031 49.097656 142.957031 49.515625 142.558594 49.914062 C 142.160156 50.3125 141.746094 50.6875 141.308594 51.046875 C 140.875 51.402344 140.421875 51.738281 139.957031 52.050781 C 139.488281 52.363281 139.003906 52.652344 138.507812 52.917969 C 138.011719 53.183594 137.503906 53.421875 136.984375 53.636719 C 136.464844 53.851562 135.9375 54.042969 135.398438 54.207031 C 134.859375 54.367188 134.3125 54.503906 133.761719 54.617188 C 133.210938 54.726562 132.65625 54.808594 132.09375 54.863281 C 131.535156 54.917969 130.972656 54.945312 130.410156 54.945312 C 129.847656 54.945312 129.285156 54.917969 128.726562 54.863281 C 128.167969 54.808594 127.609375 54.726562 127.058594 54.617188 C 126.507812 54.503906 125.960938 54.367188 125.421875 54.207031 C 124.886719 54.042969 124.355469 53.851562 123.835938 53.636719 C 123.316406 53.421875 122.808594 53.183594 122.3125 52.917969 C 121.816406 52.652344 121.332031 52.363281 120.867188 52.050781 C 120.398438 51.738281 119.945312 51.402344 119.511719 51.046875 C 119.078125 50.6875 118.660156 50.3125 118.261719 49.914062 C 117.863281 49.515625 117.488281 49.097656 117.128906 48.664062 C 116.773438 48.230469 116.4375 47.777344 116.125 47.308594 C 115.8125 46.84375 115.523438 46.359375 115.257812 45.863281 C 114.992188 45.367188 114.753906 44.859375 114.539062 44.339844 C 114.324219 43.820312 114.132812 43.292969 113.96875 42.753906 C 113.808594 42.214844 113.671875 41.667969 113.5625 41.117188 C 113.449219 40.566406 113.367188 40.007812 113.3125 39.449219 C 113.257812 38.890625 113.230469 38.328125 113.230469 37.765625 C 113.230469 37.203125 113.257812 36.640625 113.3125 36.082031 C 113.367188 35.523438 113.449219 34.964844 113.5625 34.414062 C 113.671875 33.863281 113.808594 33.316406 113.96875 32.777344 C 114.132812 32.238281 114.324219 31.710938 114.539062 31.191406 C 114.753906 30.671875 114.992188 30.164062 115.257812 29.667969 C 115.523438 29.171875 115.8125 28.6875 116.125 28.222656 C 116.4375 27.753906 116.773438 27.300781 117.128906 26.867188 C 117.488281 26.433594 117.863281 26.015625 118.261719 25.617188 C 118.660156 25.21875 119.078125 24.84375 119.511719 24.484375 C 119.945312 24.128906 120.398438 23.792969 120.867188 23.480469 C 121.332031 23.167969 121.816406 22.878906 122.3125 22.613281 C 122.808594 22.347656 123.316406 22.109375 123.835938 21.894531 C 124.355469 21.679688 124.886719 21.488281 125.421875 21.324219 C 125.960938 21.164062 126.507812 21.027344 127.058594 20.914062 C 127.609375 20.804688 128.167969 20.722656 128.726562 20.667969 C 129.285156 20.613281 129.847656 20.585938 130.410156 20.585938 C 130.972656 20.585938 131.535156 20.613281 132.09375 20.667969 C 132.65625 20.722656 133.210938 20.804688 133.761719 20.914062 C 134.3125 21.027344 134.859375 21.164062 135.398438 21.324219 C 135.9375 21.488281 136.464844 21.679688 136.984375 21.894531 C 137.503906 22.109375 138.011719 22.347656 138.507812 22.613281 C 139.003906 22.878906 139.488281 23.167969 139.957031 23.480469 C 140.421875 23.792969 140.875 24.128906 141.308594 24.484375 C 141.746094 24.84375 142.160156 25.21875 142.558594 25.617188 C 142.957031 26.015625 143.332031 26.433594 143.691406 26.867188 C 144.046875 27.300781 144.382812 27.753906 144.695312 28.222656 C 145.007812 28.6875 145.296875 29.171875 145.5625 29.667969 C 145.828125 30.164062 146.066406 30.671875 146.28125 31.191406 C 146.496094 31.710938 146.6875 32.238281 146.851562 32.777344 C 147.015625 33.316406 147.152344 33.863281 147.261719 34.414062 C 147.371094 34.964844 147.453125 35.523438 147.507812 36.082031 C 147.5625 36.640625 147.589844 37.203125 147.589844 37.765625 Z M 147.589844 37.765625 " fill-opacity="1" fill-rule="nonzero"/><path fill="#2f184a" d="M 263.535156 73.417969 C 262.75 72.238281 261.953125 71.046875 261.160156 69.875 C 243.222656 43.4375 242.179688 27.769531 257.625 16.882812 C 258.824219 16.039062 259.90625 15.164062 260.753906 14.398438 L 264.183594 18.917969 C 259.734375 20.757812 257.066406 23.046875 254.765625 26.675781 C 249.378906 35.160156 251.234375 44.164062 262.113281 62.347656 C 263.492188 64.65625 265.714844 67.648438 268.394531 70.925781 C 267.75 71.234375 267.097656 71.527344 266.460938 71.851562 C 265.472656 72.351562 264.503906 72.882812 263.535156 73.417969 Z M 263.535156 73.417969 " fill-opacity="1" fill-rule="nonzero"/><path fill="#9a71cf" d="M 271.398438 18.703125 C 271.882812 18.375 272.34375 18.023438 272.777344 17.644531 C 273.214844 17.269531 273.617188 16.871094 273.988281 16.457031 C 274.359375 16.042969 274.691406 15.617188 274.984375 15.183594 C 275.277344 14.75 275.523438 14.3125 275.726562 13.871094 C 275.929688 13.433594 276.082031 13 276.1875 12.574219 C 276.289062 12.148438 276.34375 11.738281 276.34375 11.339844 C 276.347656 10.941406 276.296875 10.566406 276.195312 10.214844 C 276.097656 9.863281 275.949219 9.539062 275.75 9.246094 L 274.335938 7.148438 C 274.136719 6.855469 273.894531 6.597656 273.605469 6.371094 C 273.316406 6.144531 272.984375 5.960938 272.617188 5.8125 C 272.25 5.664062 271.847656 5.558594 271.414062 5.496094 C 270.980469 5.433594 270.519531 5.414062 270.039062 5.433594 C 269.554688 5.457031 269.058594 5.523438 268.542969 5.632812 C 268.03125 5.738281 267.511719 5.886719 266.988281 6.078125 C 266.464844 6.265625 265.949219 6.492188 265.433594 6.753906 C 264.921875 7.015625 264.421875 7.3125 263.9375 7.640625 C 263.453125 7.964844 262.992188 8.316406 262.554688 8.695312 C 262.121094 9.074219 261.714844 9.46875 261.34375 9.882812 C 260.972656 10.296875 260.640625 10.722656 260.347656 11.15625 C 260.054688 11.59375 259.808594 12.03125 259.605469 12.46875 C 259.40625 12.910156 259.253906 13.339844 259.148438 13.765625 C 259.042969 14.195312 258.992188 14.605469 258.988281 15.003906 C 258.988281 15.398438 259.035156 15.773438 259.136719 16.125 C 259.238281 16.480469 259.386719 16.800781 259.585938 17.097656 L 260.996094 19.191406 C 261.195312 19.484375 261.441406 19.746094 261.730469 19.972656 C 262.019531 20.195312 262.347656 20.382812 262.714844 20.53125 C 263.085938 20.675781 263.488281 20.78125 263.921875 20.84375 C 264.355469 20.910156 264.8125 20.929688 265.296875 20.90625 C 265.78125 20.882812 266.277344 20.816406 266.789062 20.710938 C 267.304688 20.601562 267.820312 20.453125 268.34375 20.265625 C 268.867188 20.074219 269.386719 19.851562 269.902344 19.585938 C 270.414062 19.324219 270.914062 19.03125 271.398438 18.703125 Z M 271.398438 18.703125 " fill-opacity="1" fill-rule="evenodd"/><path fill="#2f184a" d="M 327.066406 71.363281 C 327.851562 70.183594 328.648438 68.992188 329.441406 67.820312 C 347.378906 41.382812 348.421875 25.714844 332.976562 14.828125 C 331.777344 13.984375 330.695312 13.109375 329.847656 12.34375 L 326.417969 16.863281 C 330.867188 18.703125 333.535156 20.992188 335.835938 24.621094 C 341.222656 33.105469 339.367188 42.109375 328.488281 60.292969 C 327.109375 62.601562 324.886719 65.59375 322.207031 68.871094 C 322.851562 69.179688 323.503906 69.472656 324.140625 69.796875 C 325.128906 70.296875 326.097656 70.828125 327.066406 71.363281 Z M 327.066406 71.363281 " fill-opacity="1" fill-rule="nonzero"/><path fill="#9a71cf" d="M 319.203125 16.648438 C 318.71875 16.320312 318.257812 15.96875 317.824219 15.589844 C 317.386719 15.214844 316.984375 14.816406 316.613281 14.402344 C 316.242188 13.988281 315.910156 13.5625 315.617188 13.128906 C 315.324219 12.695312 315.078125 12.257812 314.875 11.816406 C 314.671875 11.378906 314.519531 10.945312 314.414062 10.519531 C 314.3125 10.09375 314.257812 9.683594 314.257812 9.285156 C 314.253906 8.886719 314.304688 8.511719 314.40625 8.160156 C 314.503906 7.808594 314.652344 7.484375 314.851562 7.191406 L 316.265625 5.09375 C 316.464844 4.800781 316.707031 4.539062 316.996094 4.316406 C 317.285156 4.089844 317.617188 3.90625 317.984375 3.757812 C 318.351562 3.609375 318.753906 3.503906 319.1875 3.441406 C 319.621094 3.378906 320.082031 3.359375 320.5625 3.378906 C 321.046875 3.402344 321.542969 3.46875 322.058594 3.578125 C 322.570312 3.683594 323.089844 3.832031 323.613281 4.023438 C 324.136719 4.210938 324.652344 4.4375 325.167969 4.699219 C 325.679688 4.960938 326.179688 5.257812 326.664062 5.585938 C 327.148438 5.910156 327.609375 6.261719 328.046875 6.640625 C 328.480469 7.019531 328.886719 7.414062 329.257812 7.828125 C 329.628906 8.242188 329.960938 8.667969 330.253906 9.101562 C 330.546875 9.539062 330.792969 9.976562 330.996094 10.414062 C 331.195312 10.855469 331.347656 11.285156 331.453125 11.710938 C 331.558594 12.140625 331.609375 12.550781 331.613281 12.949219 C 331.613281 13.34375 331.566406 13.71875 331.464844 14.070312 C 331.363281 14.425781 331.214844 14.746094 331.015625 15.042969 L 329.605469 17.136719 C 329.40625 17.429688 329.160156 17.691406 328.871094 17.917969 C 328.582031 18.140625 328.253906 18.328125 327.886719 18.476562 C 327.515625 18.621094 327.113281 18.726562 326.679688 18.789062 C 326.246094 18.855469 325.789062 18.875 325.304688 18.851562 C 324.820312 18.828125 324.324219 18.761719 323.8125 18.65625 C 323.296875 18.546875 322.78125 18.398438 322.257812 18.210938 C 321.734375 18.019531 321.214844 17.796875 320.699219 17.53125 C 320.1875 17.269531 319.6875 16.976562 319.203125 16.648438 Z M 319.203125 16.648438 " fill-opacity="1" fill-rule="evenodd"/><path fill="#9a71cf" d="M 293.992188 98.332031 C 293.261719 98.28125 292.585938 97.984375 291.867188 97.753906 C 291.707031 97.6875 291.550781 97.621094 291.390625 97.550781 C 291.21875 97.476562 291.046875 97.402344 290.875 97.324219 C 290.703125 97.246094 290.527344 97.164062 290.355469 97.082031 C 290.179688 97 290.007812 96.917969 289.832031 96.835938 C 289.65625 96.75 289.480469 96.664062 289.304688 96.574219 C 289.128906 96.488281 288.953125 96.398438 288.777344 96.304688 C 288.601562 96.214844 288.425781 96.121094 288.246094 96.027344 C 287.890625 95.839844 287.535156 95.644531 287.175781 95.445312 C 286.816406 95.25 286.453125 95.046875 286.09375 94.835938 C 285.730469 94.628906 285.367188 94.414062 285.003906 94.195312 C 284.636719 93.980469 284.273438 93.761719 283.90625 93.535156 C 283.539062 93.3125 283.167969 93.085938 282.800781 92.851562 C 282.433594 92.621094 282.0625 92.390625 281.691406 92.15625 C 281.320312 91.917969 280.949219 91.679688 280.578125 91.441406 C 280.207031 91.203125 279.835938 90.960938 279.460938 90.71875 C 279.277344 90.597656 279.09375 90.476562 278.90625 90.355469 C 276.746094 88.667969 274.523438 86.753906 272.226562 84.558594 C 268.421875 80.925781 264.566406 76.695312 262.722656 74.210938 C 262.28125 73.582031 262.039062 72.808594 262.050781 72.035156 C 262.058594 71.265625 262.316406 70.5 262.773438 69.878906 C 263.421875 69.003906 264.476562 68.441406 265.5625 68.386719 C 266.652344 68.332031 267.753906 68.785156 268.488281 69.589844 C 276.402344 78.117188 284.988281 86.191406 288.871094 88.144531 C 294.085938 90.773438 300.839844 91.078125 305.089844 88.878906 C 309.511719 86.59375 315.234375 79.777344 320.84375 70.128906 C 321.417969 69.140625 321.984375 68.195312 322.527344 67.3125 C 323.050781 66.46875 323.902344 65.839844 324.859375 65.585938 C 325.816406 65.335938 326.867188 65.464844 327.734375 65.941406 C 328.492188 66.359375 329.101562 67.03125 329.441406 67.824219 C 329.78125 68.617188 329.847656 69.527344 329.628906 70.363281 C 327.175781 75.136719 323.316406 80.808594 319.296875 85.71875 C 318.796875 86.332031 318.292969 86.933594 317.785156 87.519531 C 314.25 91.625 312.019531 94.628906 308.007812 96.5 C 303.738281 98.492188 298.691406 98.652344 293.992188 98.332031 Z M 293.992188 98.332031 " fill-opacity="1" fill-rule="nonzero"/><path fill="#9a71cf" d="M 130.910156 17.9375 C 123.394531 17.9375 114.832031 23.328125 112.179688 29.734375 C 111.074219 32.40625 110.242188 32.800781 104.347656 33.472656 C 53.457031 39.253906 26.84375 94.285156 53.355469 138.914062 C 62.695312 154.632812 76.546875 166.808594 112.601562 191.007812 C 125.472656 199.648438 140.433594 210.414062 145.84375 214.929688 C 154.988281 222.554688 167.457031 236.394531 171.769531 243.699219 C 172.789062 245.417969 173.875 246.808594 174.191406 246.78125 C 174.503906 246.757812 177.167969 243.324219 180.109375 239.152344 C 191.347656 223.21875 203.964844 212.257812 234.125 192.238281 C 275.355469 164.863281 290.410156 150.714844 299.414062 130.859375 C 305.0625 118.402344 306.75 105.496094 305.21875 93.3125 L 296.652344 93.3125 C 298.410156 105.875 296.109375 119.113281 289.53125 131.460938 C 281.066406 147.351562 267.246094 159.875 233.054688 182.648438 C 203.03125 202.644531 191.382812 211.957031 180.847656 224.367188 C 177.605469 228.191406 174.636719 231.316406 174.261719 231.316406 C 173.882812 231.316406 170.542969 227.800781 166.84375 223.5 C 157.234375 212.339844 144.066406 201.789062 118.214844 184.542969 C 83.40625 161.328125 69.578125 149.394531 60.984375 135.144531 C 46.164062 110.578125 48.5625 81.640625 67.082031 61.582031 C 77.582031 50.207031 89.777344 43.890625 104.867188 42.003906 C 110.652344 41.28125 110.859375 41.339844 111.53125 44.015625 C 112.492188 47.859375 118.429688 54.335938 122.570312 56.066406 C 134.414062 61.015625 148.722656 52.9375 150.414062 40.347656 C 151.890625 29.339844 141.964844 17.9375 130.910156 17.9375 Z M 130.628906 21.511719 C 131.160156 21.511719 131.6875 21.539062 132.214844 21.589844 C 132.742188 21.640625 133.265625 21.71875 133.785156 21.824219 C 134.304688 21.925781 134.816406 22.054688 135.324219 22.210938 C 135.832031 22.363281 136.328125 22.542969 136.816406 22.742188 C 137.308594 22.945312 137.785156 23.171875 138.253906 23.421875 C 138.71875 23.671875 139.171875 23.945312 139.613281 24.238281 C 140.054688 24.53125 140.480469 24.847656 140.886719 25.183594 C 141.296875 25.519531 141.691406 25.875 142.0625 26.25 C 142.4375 26.625 142.792969 27.015625 143.128906 27.425781 C 143.464844 27.835938 143.78125 28.257812 144.074219 28.699219 C 144.371094 29.140625 144.640625 29.59375 144.890625 30.0625 C 145.140625 30.527344 145.367188 31.007812 145.570312 31.496094 C 145.773438 31.984375 145.949219 32.484375 146.105469 32.988281 C 146.257812 33.496094 146.386719 34.007812 146.488281 34.527344 C 146.59375 35.046875 146.671875 35.570312 146.722656 36.097656 C 146.773438 36.625 146.800781 37.152344 146.800781 37.683594 C 146.800781 38.214844 146.773438 38.742188 146.722656 39.269531 C 146.671875 39.796875 146.59375 40.320312 146.488281 40.839844 C 146.386719 41.359375 146.257812 41.871094 146.105469 42.378906 C 145.949219 42.882812 145.773438 43.382812 145.570312 43.871094 C 145.367188 44.359375 145.140625 44.839844 144.890625 45.304688 C 144.640625 45.773438 144.367188 46.226562 144.074219 46.667969 C 143.78125 47.105469 143.464844 47.53125 143.128906 47.941406 C 142.792969 48.351562 142.4375 48.742188 142.0625 49.117188 C 141.6875 49.492188 141.296875 49.847656 140.886719 50.183594 C 140.476562 50.519531 140.054688 50.832031 139.613281 51.128906 C 139.171875 51.421875 138.71875 51.695312 138.253906 51.945312 C 137.785156 52.191406 137.308594 52.417969 136.816406 52.621094 C 136.328125 52.824219 135.832031 53.003906 135.324219 53.15625 C 134.816406 53.308594 134.304688 53.4375 133.785156 53.542969 C 133.265625 53.644531 132.742188 53.722656 132.214844 53.773438 C 131.6875 53.828125 131.160156 53.851562 130.628906 53.851562 C 130.101562 53.851562 129.570312 53.824219 129.046875 53.773438 C 128.519531 53.722656 127.996094 53.644531 127.476562 53.542969 C 126.957031 53.4375 126.441406 53.308594 125.9375 53.15625 C 125.429688 53 124.933594 52.824219 124.441406 52.621094 C 123.953125 52.417969 123.476562 52.191406 123.007812 51.941406 C 122.542969 51.691406 122.085938 51.421875 121.648438 51.125 C 121.207031 50.832031 120.78125 50.515625 120.371094 50.179688 C 119.964844 49.84375 119.570312 49.492188 119.199219 49.117188 C 118.824219 48.742188 118.46875 48.351562 118.132812 47.941406 C 117.796875 47.53125 117.480469 47.105469 117.1875 46.667969 C 116.890625 46.226562 116.621094 45.773438 116.371094 45.304688 C 116.121094 44.839844 115.894531 44.359375 115.691406 43.871094 C 115.488281 43.382812 115.3125 42.882812 115.15625 42.375 C 115.003906 41.871094 114.875 41.355469 114.773438 40.839844 C 114.667969 40.320312 114.589844 39.796875 114.539062 39.269531 C 114.488281 38.742188 114.460938 38.214844 114.460938 37.683594 C 114.460938 37.152344 114.488281 36.625 114.539062 36.097656 C 114.589844 35.570312 114.667969 35.046875 114.773438 34.527344 C 114.875 34.011719 115.003906 33.496094 115.15625 32.988281 C 115.3125 32.484375 115.488281 31.984375 115.691406 31.496094 C 115.894531 31.007812 116.121094 30.527344 116.371094 30.0625 C 116.621094 29.59375 116.890625 29.140625 117.1875 28.699219 C 117.480469 28.261719 117.796875 27.835938 118.132812 27.425781 C 118.46875 27.015625 118.820312 26.625 119.195312 26.25 C 119.570312 25.875 119.964844 25.519531 120.371094 25.183594 C 120.78125 24.847656 121.207031 24.53125 121.648438 24.238281 C 122.085938 23.945312 122.539062 23.671875 123.007812 23.421875 C 123.476562 23.171875 123.953125 22.945312 124.441406 22.746094 C 124.929688 22.542969 125.429688 22.363281 125.9375 22.210938 C 126.441406 22.054688 126.957031 21.925781 127.476562 21.824219 C 127.996094 21.71875 128.519531 21.644531 129.042969 21.589844 C 129.570312 21.539062 130.101562 21.511719 130.628906 21.511719 Z M 130.628906 21.511719 " fill-opacity="1" fill-rule="nonzero"/><path fill="#c7b0e3" d="M 131.382812 22.199219 C 129.546875 22.148438 127.734375 22.5 125.972656 22.988281 C 125.382812 23.210938 124.625 23.183594 124.179688 23.671875 C 123.925781 24.296875 124.585938 24.804688 124.863281 25.296875 C 126.179688 27.042969 127.4375 28.929688 127.957031 31.054688 C 128.503906 32.65625 128.878906 34.34375 129.71875 35.824219 C 130.054688 36.398438 130.851562 36.667969 131.410156 36.246094 C 132.492188 35.492188 133.035156 34.214844 133.71875 33.128906 C 134.550781 31.636719 135.460938 30.191406 136.429688 28.78125 C 137.066406 27.640625 137.875 26.523438 138.109375 25.214844 C 138.179688 24.09375 137.007812 23.542969 136.15625 23.136719 C 134.660156 22.4375 133.027344 22.148438 131.382812 22.199219 Z M 131.382812 22.199219 " fill-opacity="1" fill-rule="evenodd"/><path fill="#c7b0e3" d="M 130.40625 36.960938 C 129.710938 37.320312 129.308594 38.070312 128.753906 38.601562 C 126.300781 41.457031 123.679688 44.195312 121.585938 47.339844 C 121.144531 47.980469 120.585938 48.875 121.144531 49.621094 C 122.042969 50.835938 123.460938 51.523438 124.773438 52.199219 C 125.886719 52.667969 127.078125 53.292969 128.324219 53.101562 C 129.441406 52.808594 129.78125 51.507812 129.84375 50.492188 C 130.027344 46.339844 130.554688 42.234375 131.050781 38.101562 C 131.160156 37.601562 131.128906 36.847656 130.40625 36.960938 Z M 130.40625 36.960938 " fill-opacity="1" fill-rule="evenodd"/><g clip-path="url(#ede1b381eb)"><path fill="#532b88" d="M 145.089844 178.835938 C 145.566406 179.878906 146.113281 180.878906 146.730469 181.84375 C 147.351562 182.804688 148.035156 183.71875 148.785156 184.582031 C 149.53125 185.449219 150.339844 186.253906 151.207031 187.003906 C 152.070312 187.753906 152.984375 188.4375 153.949219 189.054688 C 154.910156 189.671875 155.914062 190.21875 156.953125 190.695312 C 157.996094 191.167969 159.066406 191.566406 160.164062 191.886719 C 161.261719 192.207031 162.378906 192.449219 163.511719 192.613281 C 164.644531 192.773438 165.78125 192.851562 166.925781 192.851562 C 170.378906 192.855469 173.675781 192.136719 176.816406 190.695312 L 243.332031 160.40625 C 244.046875 160.082031 244.742188 159.71875 245.421875 159.324219 C 246.101562 158.929688 246.757812 158.503906 247.394531 158.042969 C 248.03125 157.585938 248.644531 157.09375 249.234375 156.574219 C 249.820312 156.054688 250.382812 155.507812 250.917969 154.933594 C 251.453125 154.359375 251.960938 153.757812 252.433594 153.132812 C 252.910156 152.507812 253.355469 151.863281 253.765625 151.191406 C 254.179688 150.523438 254.558594 149.835938 254.902344 149.132812 C 255.246094 148.425781 255.558594 147.707031 255.832031 146.96875 C 256.105469 146.234375 256.34375 145.484375 256.542969 144.726562 C 256.742188 143.96875 256.90625 143.199219 257.03125 142.425781 C 257.15625 141.648438 257.242188 140.871094 257.289062 140.085938 C 257.339844 139.300781 257.347656 138.515625 257.320312 137.730469 C 257.289062 136.949219 257.222656 136.164062 257.117188 135.386719 C 257.011719 134.609375 256.867188 133.839844 256.6875 133.074219 C 256.503906 132.308594 256.285156 131.558594 256.03125 130.8125 C 255.773438 130.070312 255.484375 129.34375 255.15625 128.628906 L 253.699219 125.464844 C 253.375 124.75 253.015625 124.050781 252.621094 123.375 C 252.230469 122.695312 251.804688 122.035156 251.34375 121.398438 C 250.886719 120.761719 250.398438 120.148438 249.878906 119.558594 C 249.359375 118.96875 248.816406 118.40625 248.242188 117.871094 C 247.667969 117.335938 247.066406 116.832031 246.445312 116.355469 C 245.820312 115.878906 245.175781 115.433594 244.507812 115.019531 C 243.839844 114.605469 243.15625 114.226562 242.449219 113.878906 C 241.746094 113.535156 241.023438 113.222656 240.289062 112.949219 C 239.554688 112.671875 238.808594 112.433594 238.050781 112.234375 C 237.289062 112.03125 236.523438 111.867188 235.75 111.742188 C 234.976562 111.617188 234.195312 111.527344 233.414062 111.476562 C 232.628906 111.429688 231.84375 111.417969 231.058594 111.445312 C 230.277344 111.472656 229.496094 111.539062 228.714844 111.640625 C 227.9375 111.746094 227.167969 111.886719 226.402344 112.066406 C 225.640625 112.246094 224.886719 112.464844 224.144531 112.71875 C 223.402344 112.972656 222.671875 113.261719 221.957031 113.589844 L 155.496094 143.910156 C 154.78125 144.234375 154.085938 144.597656 153.40625 144.988281 C 152.726562 145.382812 152.070312 145.808594 151.433594 146.269531 C 150.796875 146.726562 150.183594 147.214844 149.59375 147.734375 C 149.003906 148.253906 148.445312 148.800781 147.910156 149.375 C 147.375 149.949219 146.867188 150.546875 146.390625 151.171875 C 145.914062 151.792969 145.472656 152.441406 145.058594 153.109375 C 144.644531 153.773438 144.265625 154.460938 143.921875 155.164062 C 143.574219 155.871094 143.265625 156.589844 142.992188 157.324219 C 142.714844 158.058594 142.476562 158.808594 142.277344 159.566406 C 142.074219 160.324219 141.910156 161.089844 141.785156 161.867188 C 141.660156 162.640625 141.574219 163.417969 141.523438 164.203125 C 141.472656 164.984375 141.460938 165.769531 141.492188 166.554688 C 141.519531 167.335938 141.585938 168.117188 141.6875 168.898438 C 141.792969 169.675781 141.933594 170.445312 142.117188 171.210938 C 142.296875 171.972656 142.511719 172.726562 142.765625 173.46875 C 143.019531 174.210938 143.3125 174.9375 143.636719 175.652344 Z M 224.796875 119.851562 C 227.035156 118.824219 229.386719 118.3125 231.847656 118.3125 C 233.929688 118.320312 235.941406 118.691406 237.890625 119.421875 C 240.015625 120.207031 241.910156 121.371094 243.570312 122.914062 C 245.230469 124.457031 246.53125 126.257812 247.472656 128.320312 L 248.925781 131.503906 C 249.160156 132.015625 249.363281 132.539062 249.546875 133.070312 C 249.726562 133.601562 249.878906 134.140625 250.007812 134.6875 C 250.136719 135.234375 250.234375 135.785156 250.308594 136.339844 C 250.382812 136.898438 250.429688 137.457031 250.445312 138.019531 C 250.464844 138.578125 250.457031 139.140625 250.417969 139.699219 C 250.382812 140.261719 250.316406 140.816406 250.226562 141.371094 C 250.132812 141.925781 250.015625 142.472656 249.871094 143.015625 C 249.722656 143.558594 249.550781 144.089844 249.355469 144.617188 C 249.15625 145.140625 248.933594 145.65625 248.683594 146.160156 C 248.433594 146.664062 248.160156 147.152344 247.863281 147.628906 C 247.566406 148.105469 247.246094 148.566406 246.90625 149.011719 C 246.5625 149.457031 246.199219 149.882812 245.816406 150.292969 C 245.429688 150.703125 245.027344 151.089844 244.605469 151.460938 C 244.179688 151.828125 243.742188 152.175781 243.285156 152.503906 C 242.828125 152.828125 242.355469 153.132812 241.867188 153.414062 C 241.382812 153.691406 240.882812 153.945312 240.371094 154.175781 L 215.011719 165.761719 C 215.511719 162.957031 215.632812 160.132812 215.375 157.292969 C 215.117188 154.453125 214.488281 151.699219 213.488281 149.027344 C 212.824219 147.210938 212.011719 145.464844 211.042969 143.789062 C 210.078125 142.117188 208.972656 140.539062 207.734375 139.054688 C 206.492188 137.574219 205.132812 136.210938 203.652344 134.964844 C 202.171875 133.71875 200.597656 132.613281 198.925781 131.640625 Z M 149.507812 159.738281 C 150.28125 157.605469 151.441406 155.707031 152.988281 154.042969 C 154.53125 152.375 156.335938 151.074219 158.40625 150.140625 L 190.558594 135.472656 C 192.457031 136.070312 194.261719 136.878906 195.976562 137.894531 C 197.6875 138.910156 199.261719 140.109375 200.695312 141.492188 C 202.125 142.875 203.382812 144.402344 204.457031 146.078125 C 205.535156 147.753906 206.40625 149.527344 207.070312 151.40625 C 208.148438 154.328125 208.667969 157.351562 208.636719 160.464844 C 208.605469 163.582031 208.019531 166.589844 206.882812 169.492188 L 173.976562 184.464844 C 173.464844 184.699219 172.945312 184.902344 172.417969 185.085938 C 171.886719 185.265625 171.347656 185.421875 170.804688 185.550781 C 170.257812 185.675781 169.707031 185.777344 169.152344 185.851562 C 168.597656 185.925781 168.039062 185.972656 167.480469 185.992188 C 166.921875 186.011719 166.363281 186.003906 165.804688 185.96875 C 165.242188 185.933594 164.6875 185.871094 164.136719 185.78125 C 163.582031 185.691406 163.035156 185.574219 162.492188 185.429688 C 161.953125 185.285156 161.417969 185.117188 160.894531 184.917969 C 160.371094 184.722656 159.855469 184.503906 159.355469 184.253906 C 158.851562 184.007812 158.363281 183.738281 157.886719 183.445312 C 157.410156 183.148438 156.949219 182.832031 156.503906 182.492188 C 156.058594 182.152344 155.628906 181.789062 155.21875 181.410156 C 154.8125 181.027344 154.421875 180.625 154.050781 180.207031 C 153.679688 179.785156 153.332031 179.347656 153.003906 178.894531 C 152.675781 178.441406 152.371094 177.96875 152.089844 177.484375 C 151.808594 177 151.550781 176.503906 151.320312 175.996094 L 149.867188 172.8125 C 148.925781 170.75 148.417969 168.585938 148.34375 166.320312 C 148.269531 164.050781 148.632812 161.859375 149.4375 159.738281 Z M 149.507812 159.738281 " fill-opacity="1" fill-rule="nonzero"/></g><path fill="#532b88" d="M 167.320312 163.023438 L 167.421875 163.023438 C 167.882812 163.011719 168.320312 162.910156 168.742188 162.71875 C 169.160156 162.527344 169.527344 162.265625 169.839844 161.925781 C 170.148438 161.585938 170.386719 161.203125 170.542969 160.769531 C 170.699219 160.335938 170.765625 159.890625 170.742188 159.429688 L 170.742188 156.675781 L 192.304688 146.855469 C 192.714844 146.664062 193.078125 146.40625 193.386719 146.074219 C 193.695312 145.742188 193.929688 145.363281 194.089844 144.9375 C 194.25 144.511719 194.320312 144.074219 194.304688 143.617188 C 194.289062 143.164062 194.183594 142.730469 193.996094 142.320312 C 193.808594 141.90625 193.546875 141.546875 193.214844 141.234375 C 192.882812 140.925781 192.507812 140.691406 192.082031 140.53125 C 191.65625 140.375 191.214844 140.300781 190.761719 140.320312 C 190.308594 140.335938 189.875 140.4375 189.460938 140.625 L 165.847656 151.386719 C 165.222656 151.671875 164.730469 152.105469 164.367188 152.6875 C 164.003906 153.269531 163.828125 153.902344 163.847656 154.589844 L 163.984375 159.621094 C 163.984375 160.0625 164.070312 160.492188 164.238281 160.90625 C 164.410156 161.316406 164.648438 161.679688 164.960938 162 C 165.273438 162.316406 165.632812 162.5625 166.039062 162.742188 C 166.449219 162.917969 166.875 163.011719 167.320312 163.023438 Z M 167.320312 163.023438 " fill-opacity="1" fill-rule="nonzero"/><path fill="#532b88" d="M 164.511719 177.039062 C 164.96875 177.039062 165.402344 176.953125 165.824219 176.777344 C 166.242188 176.605469 166.613281 176.359375 166.933594 176.035156 C 167.253906 175.714844 167.5 175.347656 167.675781 174.925781 C 167.847656 174.507812 167.9375 174.070312 167.9375 173.617188 L 167.9375 168.089844 C 167.9375 167.636719 167.847656 167.199219 167.675781 166.78125 C 167.5 166.359375 167.253906 165.992188 166.933594 165.667969 C 166.613281 165.347656 166.242188 165.101562 165.824219 164.929688 C 165.402344 164.753906 164.96875 164.667969 164.511719 164.667969 C 164.058594 164.667969 163.621094 164.753906 163.203125 164.929688 C 162.785156 165.101562 162.414062 165.347656 162.09375 165.667969 C 161.773438 165.992188 161.523438 166.359375 161.351562 166.78125 C 161.179688 167.199219 161.089844 167.636719 161.089844 168.089844 L 161.089844 173.617188 C 161.089844 174.070312 161.179688 174.507812 161.351562 174.925781 C 161.523438 175.347656 161.773438 175.714844 162.09375 176.035156 C 162.414062 176.359375 162.785156 176.605469 163.203125 176.777344 C 163.621094 176.953125 164.058594 177.039062 164.511719 177.039062 Z M 164.511719 177.039062 " fill-opacity="1" fill-rule="nonzero"/><path fill="#532b88" d="M 220.28125 110.78125 L 224.902344 105.648438 C 223.722656 104.585938 222.449219 103.648438 221.085938 102.84375 L 186.863281 82.425781 L 158.25 65.46875 C 157.574219 65.070312 156.882812 64.703125 156.171875 64.371094 C 155.460938 64.039062 154.734375 63.742188 153.992188 63.480469 C 153.253906 63.21875 152.5 62.996094 151.738281 62.808594 C 150.976562 62.621094 150.207031 62.472656 149.429688 62.359375 C 148.652344 62.25 147.871094 62.175781 147.085938 62.140625 C 146.304688 62.105469 145.519531 62.109375 144.734375 62.152344 C 143.949219 62.195312 143.171875 62.277344 142.394531 62.394531 C 141.621094 62.515625 140.851562 62.671875 140.089844 62.863281 C 139.328125 63.058594 138.582031 63.292969 137.84375 63.558594 C 137.105469 63.828125 136.382812 64.132812 135.675781 64.472656 C 134.964844 64.808594 134.277344 65.183594 133.605469 65.589844 C 132.933594 65.996094 132.285156 66.4375 131.65625 66.90625 C 131.027344 67.378906 130.425781 67.878906 129.847656 68.410156 C 129.265625 68.941406 128.714844 69.496094 128.191406 70.082031 C 127.667969 70.667969 127.171875 71.273438 126.707031 71.910156 C 126.246094 72.542969 125.8125 73.195312 125.414062 73.871094 L 123.703125 76.882812 C 123.300781 77.554688 122.9375 78.246094 122.605469 78.953125 C 122.273438 79.660156 121.980469 80.382812 121.71875 81.121094 C 121.457031 81.855469 121.234375 82.605469 121.046875 83.363281 C 120.859375 84.121094 120.707031 84.886719 120.597656 85.660156 C 120.484375 86.433594 120.410156 87.210938 120.371094 87.992188 C 120.335938 88.773438 120.339844 89.554688 120.378906 90.335938 C 120.417969 91.113281 120.496094 91.890625 120.613281 92.664062 C 120.726562 93.4375 120.882812 94.203125 121.070312 94.960938 C 121.261719 95.71875 121.488281 96.464844 121.753906 97.199219 C 122.019531 97.9375 122.316406 98.65625 122.652344 99.363281 C 122.984375 100.070312 123.355469 100.757812 123.757812 101.429688 C 124.15625 102.097656 124.589844 102.746094 125.058594 103.375 C 125.523438 104.003906 126.015625 104.605469 126.542969 105.1875 C 127.066406 105.765625 127.617188 106.316406 128.195312 106.84375 C 128.773438 107.367188 129.378906 107.863281 130.003906 108.332031 C 130.632812 108.796875 131.28125 109.234375 131.949219 109.636719 L 160.320312 126.523438 L 163.828125 120.65625 L 135.527344 103.75 C 135.046875 103.460938 134.582031 103.148438 134.132812 102.816406 C 133.683594 102.480469 133.25 102.125 132.835938 101.75 C 132.421875 101.375 132.027344 100.980469 131.652344 100.5625 C 131.273438 100.148438 130.917969 99.71875 130.585938 99.269531 C 130.253906 98.816406 129.941406 98.355469 129.652344 97.875 C 129.363281 97.394531 129.097656 96.902344 128.859375 96.394531 C 128.617188 95.890625 128.402344 95.375 128.214844 94.847656 C 128.023438 94.320312 127.859375 93.785156 127.722656 93.242188 C 127.585938 92.699219 127.472656 92.152344 127.390625 91.601562 C 127.304688 91.046875 127.25 90.488281 127.21875 89.929688 C 127.1875 89.371094 127.1875 88.8125 127.210938 88.253906 C 127.234375 87.695312 127.289062 87.136719 127.367188 86.582031 C 127.445312 86.027344 127.550781 85.480469 127.683594 84.9375 C 127.816406 84.390625 127.976562 83.855469 128.160156 83.328125 C 128.34375 82.800781 128.554688 82.28125 128.792969 81.773438 C 129.027344 81.265625 129.285156 80.769531 129.570312 80.289062 L 131.28125 77.292969 C 131.570312 76.8125 131.882812 76.351562 132.214844 75.902344 C 132.550781 75.453125 132.90625 75.019531 133.28125 74.605469 C 133.65625 74.191406 134.050781 73.792969 134.46875 73.417969 C 134.882812 73.042969 135.3125 72.6875 135.761719 72.355469 C 136.210938 72.019531 136.675781 71.710938 137.15625 71.421875 C 137.636719 71.132812 138.128906 70.867188 138.636719 70.628906 C 139.140625 70.386719 139.65625 70.171875 140.183594 69.980469 C 140.710938 69.792969 141.246094 69.628906 141.789062 69.492188 C 142.328125 69.351562 142.878906 69.242188 143.429688 69.15625 C 143.984375 69.074219 144.542969 69.015625 145.101562 68.988281 C 145.660156 68.957031 146.21875 68.953125 146.777344 68.980469 C 147.335938 69.003906 147.894531 69.054688 148.449219 69.132812 C 149 69.214844 149.550781 69.320312 150.09375 69.453125 C 150.636719 69.585938 151.175781 69.742188 151.703125 69.929688 C 152.230469 70.113281 152.75 70.324219 153.257812 70.558594 C 153.765625 70.796875 154.261719 71.054688 154.742188 71.339844 L 176.816406 84.5 C 173.125 86.796875 170.066406 89.75 167.644531 93.363281 C 162.511719 100.804688 160.714844 110.011719 162.785156 117.320312 L 169.375 115.453125 C 167.851562 110.082031 169.375 102.894531 173.292969 97.160156 C 174.566406 95.238281 176.097656 93.546875 177.886719 92.085938 C 179.675781 90.628906 181.640625 89.46875 183.78125 88.605469 L 217.492188 108.675781 C 218.492188 109.285156 219.421875 109.988281 220.28125 110.78125 Z M 220.28125 110.78125 " fill-opacity="1" fill-rule="nonzero"/><path fill="#532b88" d="M 185.214844 101.246094 L 188.53125 95.261719 L 212.65625 108.636719 L 209.335938 114.625 Z M 185.214844 101.246094 " fill-opacity="1" fill-rule="nonzero"/><g clip-path="url(#260296dff8)"><path fill="#532b88" d="M 346.414062 260.960938 C 341.417969 256.316406 329.0625 251.867188 300.152344 267.929688 C 287.640625 275.722656 280.863281 280.730469 277.4375 283.5 C 275.238281 285.273438 272.546875 286.328125 269.726562 286.519531 C 254.671875 287.566406 207.113281 292.152344 190.816406 291.832031 C 188.4375 291.785156 187.636719 288.574219 189.234375 287.324219 C 190.429688 286.390625 192.265625 285.929688 194.882812 285.109375 C 204.128906 282.226562 255.507812 282.464844 254.382812 263.246094 C 253.304688 244.816406 216.464844 251.613281 205.535156 253.945312 C 201.292969 254.847656 196.566406 255.554688 192.207031 256.082031 C 192.207031 256.082031 176.355469 256.777344 168.554688 254.910156 C 152.296875 250.664062 118.101562 243.769531 96.496094 261.273438 C 79.09375 275.371094 71.371094 284.664062 68 289.730469 C 65.726562 293.15625 62.609375 295.925781 58.964844 297.824219 L 28.527344 319.253906 C 26.921875 320.378906 26.726562 322.675781 28.113281 324.0625 L 62.046875 358.003906 L 78.074219 374.023438 C 79.4375 375.386719 81.691406 375.222656 82.835938 373.671875 C 89.707031 364.382812 114.289062 337.167969 165.535156 338.820312 C 227.265625 340.8125 227.664062 339.617188 241.207031 332.449219 C 251.835938 326.824219 277.113281 317.773438 287.507812 314.132812 C 290.566406 313.066406 293.410156 311.464844 295.910156 309.410156 L 346.082031 268.203125 C 348.410156 266.410156 348.566406 262.960938 346.414062 260.960938 " fill-opacity="1" fill-rule="nonzero"/></g><g clip-path="url(#54576c75e9)"><path fill="#532b88" d="M 251.421875 248.792969 C 253.007812 249.683594 254.398438 250.726562 255.570312 251.894531 C 256.289062 252.609375 256.9375 253.390625 257.5 254.207031 C 261.183594 252.460938 265.296875 250.605469 269.734375 248.6875 L 269.796875 248.660156 C 280.9375 244.496094 290.546875 242.269531 298.40625 242.03125 C 295.835938 240.667969 292.628906 239.867188 288.828125 239.636719 C 280.785156 239.160156 270.324219 241.304688 257.730469 246.007812 C 255.550781 246.949219 253.429688 247.886719 251.421875 248.792969 " fill-opacity="1" fill-rule="nonzero"/></g><path fill="#532b88" d="M 244.847656 280.820312 C 247.800781 280.59375 250.625 280.375 253.253906 280.167969 L 253.285156 280.164062 C 260.335938 279.621094 266.425781 279.144531 270.308594 278.898438 C 270.96875 278.855469 271.628906 278.726562 272.273438 278.503906 C 273.097656 278.222656 273.851562 277.808594 274.519531 277.273438 C 278.035156 274.433594 284.804688 269.460938 297.074219 261.863281 L 297.210938 261.78125 L 297.324219 261.714844 C 300.828125 259.789062 304.25 258.070312 307.492188 256.625 C 310.695312 255.253906 313.761719 254.132812 316.617188 253.292969 C 317.015625 253.175781 317.410156 253.0625 317.808594 252.957031 C 317.351562 252.5625 316.855469 252.183594 316.335938 251.84375 C 313.410156 249.921875 309.496094 248.871094 304.707031 248.710938 C 297.054688 248.460938 287.289062 250.5 275.683594 254.777344 C 270.402344 257.035156 265.632812 259.1875 261.503906 261.179688 C 261.519531 261.367188 261.53125 261.554688 261.542969 261.730469 C 262.089844 270.214844 256.480469 276.628906 244.847656 280.820312 " fill-opacity="1" fill-rule="nonzero"/></svg>