<svg xmlns="http://www.w3.org/2000/svg" xmlns:xlink="http://www.w3.org/1999/xlink" width="500" zoomAndPan="magnify" viewBox="0 0 375 374.999991" height="500" preserveAspectRatio="xMidYMid meet" version="1.0"><defs><clipPath id="a775a9c721"><path d="M 30.570312 244.296875 L 344.632812 244.296875 L 344.632812 366.953125 L 30.570312 366.953125 Z M 30.570312 244.296875 " clip-rule="nonzero"/></clipPath><clipPath id="db05d4894a"><path d="M 250 234.203125 L 297 234.203125 L 297 249 L 250 249 Z M 250 234.203125 " clip-rule="nonzero"/></clipPath></defs><path fill="#532b88" d="M 148.464844 36.984375 C 148.464844 37.535156 148.4375 38.085938 148.386719 38.632812 C 148.332031 39.183594 148.25 39.726562 148.144531 40.265625 C 148.035156 40.808594 147.902344 41.339844 147.742188 41.867188 C 147.582031 42.394531 147.394531 42.914062 147.183594 43.421875 C 146.972656 43.933594 146.738281 44.429688 146.480469 44.914062 C 146.21875 45.402344 145.9375 45.871094 145.628906 46.332031 C 145.324219 46.789062 144.996094 47.230469 144.648438 47.65625 C 144.296875 48.082031 143.929688 48.492188 143.539062 48.878906 C 143.148438 49.269531 142.742188 49.640625 142.316406 49.988281 C 141.890625 50.339844 141.449219 50.667969 140.988281 50.972656 C 140.53125 51.277344 140.058594 51.5625 139.574219 51.820312 C 139.085938 52.082031 138.589844 52.316406 138.082031 52.527344 C 137.570312 52.738281 137.054688 52.921875 136.527344 53.082031 C 136 53.242188 135.464844 53.375 134.925781 53.484375 C 134.386719 53.589844 133.839844 53.671875 133.292969 53.726562 C 132.742188 53.78125 132.195312 53.808594 131.644531 53.808594 C 131.09375 53.808594 130.542969 53.78125 129.996094 53.726562 C 129.445312 53.671875 128.902344 53.589844 128.363281 53.484375 C 127.820312 53.375 127.289062 53.242188 126.761719 53.082031 C 126.234375 52.921875 125.714844 52.738281 125.207031 52.527344 C 124.695312 52.316406 124.199219 52.082031 123.714844 51.820312 C 123.226562 51.5625 122.753906 51.277344 122.296875 50.972656 C 121.839844 50.667969 121.398438 50.339844 120.972656 49.988281 C 120.546875 49.640625 120.136719 49.269531 119.75 48.878906 C 119.359375 48.492188 118.988281 48.082031 118.640625 47.65625 C 118.289062 47.230469 117.960938 46.789062 117.65625 46.332031 C 117.351562 45.871094 117.066406 45.402344 116.808594 44.914062 C 116.546875 44.429688 116.3125 43.929688 116.101562 43.421875 C 115.890625 42.914062 115.707031 42.394531 115.546875 41.867188 C 115.386719 41.339844 115.25 40.808594 115.144531 40.265625 C 115.035156 39.726562 114.957031 39.183594 114.902344 38.632812 C 114.847656 38.085938 114.820312 37.535156 114.820312 36.984375 C 114.820312 36.433594 114.847656 35.882812 114.902344 35.335938 C 114.957031 34.789062 115.035156 34.242188 115.144531 33.703125 C 115.25 33.164062 115.386719 32.628906 115.546875 32.101562 C 115.707031 31.574219 115.890625 31.054688 116.101562 30.546875 C 116.3125 30.039062 116.546875 29.539062 116.808594 29.054688 C 117.066406 28.570312 117.351562 28.097656 117.65625 27.640625 C 117.960938 27.179688 118.289062 26.738281 118.640625 26.3125 C 118.988281 25.886719 119.359375 25.480469 119.75 25.089844 C 120.136719 24.699219 120.546875 24.332031 120.972656 23.980469 C 121.398438 23.632812 121.839844 23.304688 122.296875 22.996094 C 122.753906 22.691406 123.226562 22.410156 123.714844 22.148438 C 124.199219 21.890625 124.695312 21.652344 125.207031 21.441406 C 125.714844 21.230469 126.234375 21.046875 126.761719 20.886719 C 127.289062 20.726562 127.820312 20.59375 128.363281 20.484375 C 128.902344 20.378906 129.445312 20.296875 129.996094 20.242188 C 130.542969 20.191406 131.09375 20.164062 131.644531 20.164062 C 132.195312 20.164062 132.742188 20.191406 133.292969 20.242188 C 133.839844 20.296875 134.386719 20.378906 134.925781 20.484375 C 135.464844 20.59375 136 20.726562 136.527344 20.886719 C 137.054688 21.046875 137.570312 21.230469 138.082031 21.441406 C 138.589844 21.652344 139.085938 21.890625 139.574219 22.148438 C 140.058594 22.410156 140.53125 22.691406 140.988281 22.996094 C 141.449219 23.304688 141.890625 23.632812 142.316406 23.980469 C 142.742188 24.332031 143.148438 24.699219 143.539062 25.089844 C 143.929688 25.480469 144.296875 25.886719 144.648438 26.3125 C 144.996094 26.738281 145.324219 27.179688 145.628906 27.640625 C 145.9375 28.097656 146.21875 28.570312 146.480469 29.054688 C 146.738281 29.539062 146.972656 30.039062 147.183594 30.546875 C 147.394531 31.054688 147.582031 31.574219 147.742188 32.101562 C 147.902344 32.628906 148.035156 33.164062 148.144531 33.703125 C 148.25 34.242188 148.332031 34.789062 148.386719 35.335938 C 148.4375 35.882812 148.464844 36.433594 148.464844 36.984375 Z M 148.464844 36.984375 " fill-opacity="1" fill-rule="nonzero"/><path fill="#2f184a" d="M 261.996094 71.894531 C 261.226562 70.742188 260.449219 69.574219 259.671875 68.429688 C 242.109375 42.539062 241.085938 27.195312 256.210938 16.535156 C 257.382812 15.710938 258.445312 14.855469 259.273438 14.101562 L 262.632812 18.53125 C 258.277344 20.332031 255.664062 22.574219 253.410156 26.125 C 248.136719 34.433594 249.953125 43.25 260.605469 61.054688 C 261.957031 63.316406 264.128906 66.246094 266.757812 69.453125 C 266.125 69.757812 265.488281 70.042969 264.863281 70.359375 C 263.898438 70.851562 262.945312 71.371094 261.996094 71.894531 Z M 261.996094 71.894531 " fill-opacity="1" fill-rule="nonzero"/><path fill="#9a71cf" d="M 269.695312 18.320312 C 270.171875 18 270.621094 17.652344 271.050781 17.285156 C 271.476562 16.914062 271.871094 16.527344 272.234375 16.121094 C 272.597656 15.714844 272.925781 15.300781 273.210938 14.875 C 273.496094 14.445312 273.738281 14.019531 273.9375 13.589844 C 274.132812 13.160156 274.285156 12.734375 274.386719 12.316406 C 274.488281 11.902344 274.539062 11.496094 274.542969 11.109375 C 274.542969 10.71875 274.496094 10.351562 274.398438 10.007812 C 274.296875 9.664062 274.152344 9.347656 273.957031 9.058594 L 272.574219 7.007812 C 272.378906 6.71875 272.140625 6.464844 271.859375 6.242188 C 271.574219 6.023438 271.253906 5.839844 270.890625 5.695312 C 270.53125 5.550781 270.136719 5.449219 269.710938 5.386719 C 269.285156 5.324219 268.839844 5.304688 268.367188 5.328125 C 267.890625 5.351562 267.40625 5.414062 266.902344 5.519531 C 266.402344 5.625 265.894531 5.769531 265.378906 5.957031 C 264.867188 6.140625 264.359375 6.363281 263.855469 6.621094 C 263.355469 6.875 262.867188 7.164062 262.390625 7.484375 C 261.917969 7.804688 261.464844 8.148438 261.039062 8.519531 C 260.613281 8.890625 260.214844 9.277344 259.851562 9.683594 C 259.488281 10.089844 259.164062 10.503906 258.878906 10.929688 C 258.589844 11.355469 258.351562 11.785156 258.152344 12.214844 C 257.953125 12.644531 257.804688 13.070312 257.703125 13.484375 C 257.601562 13.902344 257.550781 14.304688 257.546875 14.695312 C 257.546875 15.082031 257.59375 15.449219 257.691406 15.796875 C 257.789062 16.140625 257.9375 16.457031 258.128906 16.746094 L 259.515625 18.796875 C 259.707031 19.085938 259.945312 19.339844 260.230469 19.5625 C 260.511719 19.78125 260.835938 19.964844 261.195312 20.105469 C 261.558594 20.25 261.949219 20.355469 262.375 20.417969 C 262.800781 20.480469 263.25 20.5 263.722656 20.476562 C 264.195312 20.453125 264.683594 20.390625 265.183594 20.285156 C 265.6875 20.179688 266.195312 20.035156 266.707031 19.847656 C 267.21875 19.664062 267.726562 19.441406 268.230469 19.183594 C 268.734375 18.925781 269.222656 18.636719 269.695312 18.320312 Z M 269.695312 18.320312 " fill-opacity="1" fill-rule="evenodd"/><path fill="#2f184a" d="M 324.207031 69.882812 C 324.976562 68.730469 325.757812 67.5625 326.535156 66.414062 C 344.097656 40.527344 345.121094 25.183594 329.996094 14.523438 C 328.820312 13.695312 327.761719 12.84375 326.933594 12.089844 L 323.574219 16.519531 C 327.929688 18.320312 330.539062 20.5625 332.796875 24.113281 C 338.066406 32.421875 336.253906 41.238281 325.601562 59.042969 C 324.246094 61.304688 322.074219 64.234375 319.449219 67.441406 C 320.082031 67.746094 320.71875 68.03125 321.339844 68.347656 C 322.308594 68.839844 323.257812 69.359375 324.207031 69.882812 Z M 324.207031 69.882812 " fill-opacity="1" fill-rule="nonzero"/><path fill="#9a71cf" d="M 316.507812 16.308594 C 316.035156 15.988281 315.582031 15.640625 315.15625 15.273438 C 314.730469 14.902344 314.335938 14.515625 313.96875 14.109375 C 313.605469 13.703125 313.28125 13.289062 312.996094 12.859375 C 312.710938 12.433594 312.46875 12.007812 312.269531 11.578125 C 312.070312 11.148438 311.921875 10.722656 311.820312 10.304688 C 311.71875 9.886719 311.667969 9.484375 311.664062 9.097656 C 311.664062 8.707031 311.710938 8.339844 311.808594 7.996094 C 311.90625 7.652344 312.054688 7.332031 312.246094 7.046875 L 313.632812 4.996094 C 313.824219 4.707031 314.0625 4.453125 314.347656 4.230469 C 314.628906 4.011719 314.953125 3.828125 315.3125 3.683594 C 315.675781 3.539062 316.066406 3.4375 316.492188 3.375 C 316.917969 3.3125 317.367188 3.292969 317.839844 3.316406 C 318.3125 3.335938 318.800781 3.402344 319.304688 3.507812 C 319.804688 3.613281 320.3125 3.757812 320.824219 3.945312 C 321.335938 4.128906 321.84375 4.351562 322.347656 4.605469 C 322.851562 4.863281 323.339844 5.152344 323.8125 5.472656 C 324.289062 5.792969 324.738281 6.136719 325.167969 6.507812 C 325.59375 6.878906 325.988281 7.265625 326.351562 7.671875 C 326.714844 8.078125 327.042969 8.492188 327.328125 8.917969 C 327.613281 9.34375 327.855469 9.773438 328.054688 10.203125 C 328.25 10.632812 328.402344 11.054688 328.503906 11.472656 C 328.605469 11.890625 328.65625 12.292969 328.660156 12.683594 C 328.660156 13.070312 328.613281 13.4375 328.515625 13.785156 C 328.414062 14.128906 328.269531 14.445312 328.074219 14.734375 L 326.691406 16.785156 C 326.496094 17.074219 326.257812 17.328125 325.976562 17.546875 C 325.691406 17.769531 325.371094 17.953125 325.007812 18.09375 C 324.648438 18.238281 324.253906 18.34375 323.828125 18.40625 C 323.40625 18.464844 322.957031 18.488281 322.484375 18.464844 C 322.011719 18.441406 321.523438 18.378906 321.019531 18.273438 C 320.519531 18.167969 320.011719 18.019531 319.496094 17.835938 C 318.984375 17.652344 318.476562 17.429688 317.972656 17.171875 C 317.472656 16.914062 316.984375 16.625 316.507812 16.308594 Z M 316.507812 16.308594 " fill-opacity="1" fill-rule="evenodd"/><path fill="#9a71cf" d="M 291.820312 96.292969 C 291.105469 96.242188 290.445312 95.949219 289.738281 95.722656 C 289.585938 95.660156 289.429688 95.597656 289.273438 95.527344 C 289.105469 95.457031 288.9375 95.378906 288.769531 95.304688 C 288.601562 95.226562 288.429688 95.148438 288.261719 95.066406 C 288.089844 94.988281 287.917969 94.90625 287.746094 94.824219 C 287.578125 94.742188 287.40625 94.65625 287.234375 94.570312 C 287.0625 94.484375 286.886719 94.394531 286.714844 94.308594 C 286.542969 94.21875 286.371094 94.128906 286.195312 94.035156 C 285.847656 93.851562 285.496094 93.660156 285.144531 93.464844 C 284.792969 93.273438 284.441406 93.074219 284.085938 92.871094 C 283.730469 92.664062 283.375 92.453125 283.019531 92.242188 C 282.664062 92.03125 282.304688 91.816406 281.945312 91.59375 C 281.585938 91.375 281.222656 91.152344 280.863281 90.925781 C 280.5 90.699219 280.136719 90.472656 279.777344 90.242188 C 279.414062 90.011719 279.050781 89.777344 278.6875 89.542969 C 278.324219 89.308594 277.960938 89.074219 277.59375 88.835938 C 277.414062 88.71875 277.230469 88.601562 277.050781 88.480469 C 274.933594 86.828125 272.757812 84.953125 270.511719 82.804688 C 266.785156 79.246094 263.007812 75.105469 261.203125 72.671875 C 260.769531 72.054688 260.535156 71.296875 260.542969 70.542969 C 260.550781 69.789062 260.804688 69.039062 261.253906 68.429688 C 261.886719 67.574219 262.917969 67.023438 263.984375 66.96875 C 265.050781 66.914062 266.128906 67.359375 266.847656 68.148438 C 274.597656 76.496094 283.003906 84.402344 286.804688 86.316406 C 291.914062 88.890625 298.523438 89.191406 302.6875 87.035156 C 307.015625 84.796875 312.625 78.125 318.113281 68.675781 C 318.675781 67.707031 319.230469 66.78125 319.765625 65.917969 C 320.273438 65.09375 321.109375 64.472656 322.046875 64.226562 C 322.984375 63.980469 324.011719 64.109375 324.859375 64.574219 C 325.601562 64.984375 326.199219 65.640625 326.53125 66.417969 C 326.867188 67.195312 326.933594 68.085938 326.714844 68.902344 C 324.316406 73.578125 320.535156 79.132812 316.601562 83.941406 C 316.109375 84.539062 315.617188 85.128906 315.121094 85.703125 C 311.660156 89.722656 309.472656 92.664062 305.542969 94.496094 C 301.363281 96.445312 296.425781 96.605469 291.820312 96.292969 Z M 291.820312 96.292969 " fill-opacity="1" fill-rule="nonzero"/><path fill="#9a71cf" d="M 132.132812 17.566406 C 124.773438 17.566406 116.390625 22.847656 113.792969 29.121094 C 112.707031 31.734375 111.894531 32.125 106.121094 32.78125 C 56.289062 38.441406 30.230469 92.328125 56.191406 136.027344 C 65.339844 151.421875 78.898438 163.34375 114.207031 187.039062 C 126.808594 195.5 141.457031 206.039062 146.757812 210.460938 C 155.710938 217.929688 167.917969 231.480469 172.144531 238.632812 C 173.136719 240.320312 174.207031 241.675781 174.511719 241.652344 C 174.820312 241.628906 177.429688 238.265625 180.308594 234.183594 C 191.3125 218.578125 203.667969 207.847656 233.199219 188.242188 C 273.574219 161.4375 288.3125 147.585938 297.128906 128.144531 C 302.660156 115.941406 304.3125 103.304688 302.8125 91.375 L 294.425781 91.375 C 296.148438 103.675781 293.894531 116.640625 287.453125 128.730469 C 279.164062 144.289062 265.632812 156.554688 232.152344 178.851562 C 202.753906 198.433594 191.347656 207.550781 181.03125 219.703125 C 177.855469 223.449219 174.949219 226.507812 174.582031 226.507812 C 174.210938 226.507812 170.941406 223.066406 167.316406 218.855469 C 157.910156 207.925781 145.015625 197.59375 119.699219 180.710938 C 85.617188 157.976562 72.078125 146.289062 63.660156 132.335938 C 49.148438 108.28125 51.5 79.949219 69.632812 60.304688 C 79.914062 49.167969 91.855469 42.980469 106.632812 41.136719 C 112.296875 40.429688 112.5 40.488281 113.15625 43.105469 C 114.101562 46.867188 119.914062 53.210938 123.964844 54.90625 C 135.566406 59.753906 149.574219 51.839844 151.230469 39.511719 C 152.675781 28.734375 142.957031 17.566406 132.132812 17.566406 Z M 131.859375 21.070312 C 132.375 21.070312 132.894531 21.097656 133.410156 21.148438 C 133.925781 21.199219 134.4375 21.273438 134.945312 21.375 C 135.457031 21.476562 135.957031 21.601562 136.453125 21.753906 C 136.949219 21.902344 137.4375 22.078125 137.917969 22.277344 C 138.398438 22.472656 138.863281 22.695312 139.324219 22.941406 C 139.78125 23.183594 140.222656 23.449219 140.65625 23.738281 C 141.085938 24.027344 141.503906 24.335938 141.902344 24.664062 C 142.304688 24.992188 142.6875 25.339844 143.054688 25.707031 C 143.421875 26.074219 143.769531 26.457031 144.097656 26.859375 C 144.425781 27.261719 144.734375 27.675781 145.023438 28.109375 C 145.3125 28.539062 145.578125 28.984375 145.824219 29.441406 C 146.066406 29.898438 146.289062 30.367188 146.488281 30.84375 C 146.6875 31.324219 146.859375 31.8125 147.011719 32.308594 C 147.160156 32.804688 147.285156 33.308594 147.386719 33.816406 C 147.488281 34.324219 147.566406 34.835938 147.617188 35.351562 C 147.667969 35.867188 147.691406 36.386719 147.691406 36.90625 C 147.691406 37.421875 147.667969 37.941406 147.617188 38.457031 C 147.566406 38.972656 147.488281 39.484375 147.386719 39.992188 C 147.285156 40.503906 147.160156 41.003906 147.011719 41.5 C 146.859375 41.996094 146.683594 42.484375 146.488281 42.964844 C 146.289062 43.441406 146.066406 43.910156 145.820312 44.367188 C 145.578125 44.824219 145.3125 45.269531 145.023438 45.699219 C 144.734375 46.132812 144.425781 46.546875 144.097656 46.949219 C 143.769531 47.351562 143.421875 47.734375 143.054688 48.101562 C 142.6875 48.464844 142.304688 48.816406 141.902344 49.144531 C 141.5 49.472656 141.085938 49.78125 140.65625 50.070312 C 140.222656 50.355469 139.777344 50.625 139.320312 50.867188 C 138.863281 51.113281 138.394531 51.332031 137.917969 51.53125 C 137.4375 51.730469 136.949219 51.90625 136.453125 52.054688 C 135.957031 52.207031 135.457031 52.332031 134.945312 52.433594 C 134.4375 52.535156 133.925781 52.609375 133.410156 52.660156 C 132.894531 52.710938 132.375 52.738281 131.859375 52.738281 C 130.820312 52.738281 129.789062 52.636719 128.769531 52.433594 C 127.75 52.230469 126.761719 51.929688 125.800781 51.53125 C 124.839844 51.132812 123.925781 50.644531 123.0625 50.066406 C 122.199219 49.492188 121.398438 48.835938 120.664062 48.097656 C 119.929688 47.363281 119.273438 46.566406 118.695312 45.699219 C 118.117188 44.835938 117.628906 43.921875 117.230469 42.964844 C 116.832031 42.003906 116.535156 41.011719 116.332031 39.992188 C 116.128906 38.972656 116.027344 37.945312 116.027344 36.90625 C 116.027344 36.386719 116.050781 35.867188 116.101562 35.351562 C 116.152344 34.835938 116.230469 34.324219 116.332031 33.816406 C 116.429688 33.308594 116.558594 32.804688 116.707031 32.308594 C 116.859375 31.8125 117.03125 31.324219 117.230469 30.84375 C 117.429688 30.367188 117.652344 29.898438 117.894531 29.441406 C 118.140625 28.984375 118.40625 28.539062 118.695312 28.109375 C 118.980469 27.675781 119.289062 27.261719 119.621094 26.859375 C 119.949219 26.460938 120.296875 26.074219 120.664062 25.707031 C 121.03125 25.34375 121.414062 24.996094 121.8125 24.664062 C 122.214844 24.335938 122.628906 24.027344 123.0625 23.738281 C 123.492188 23.453125 123.9375 23.183594 124.394531 22.941406 C 124.851562 22.695312 125.320312 22.476562 125.800781 22.277344 C 126.277344 22.078125 126.765625 21.902344 127.261719 21.753906 C 127.757812 21.601562 128.261719 21.476562 128.769531 21.375 C 129.277344 21.273438 129.789062 21.199219 130.304688 21.148438 C 130.820312 21.097656 131.339844 21.070312 131.859375 21.070312 Z M 131.859375 21.070312 " fill-opacity="1" fill-rule="nonzero"/><path fill="#c7b0e3" d="M 132.597656 21.742188 C 130.796875 21.691406 129.023438 22.039062 127.296875 22.515625 C 126.722656 22.734375 125.980469 22.707031 125.542969 23.183594 C 125.296875 23.796875 125.941406 24.292969 126.210938 24.777344 C 127.5 26.484375 128.734375 28.332031 129.242188 30.414062 C 129.773438 31.980469 130.144531 33.636719 130.96875 35.085938 C 131.292969 35.648438 132.074219 35.910156 132.621094 35.496094 C 133.679688 34.757812 134.214844 33.507812 134.882812 32.445312 C 135.699219 30.984375 136.589844 29.566406 137.539062 28.1875 C 138.160156 27.070312 138.953125 25.976562 139.179688 24.695312 C 139.25 23.597656 138.101562 23.058594 137.269531 22.660156 C 135.804688 21.976562 134.207031 21.691406 132.597656 21.742188 Z M 132.597656 21.742188 " fill-opacity="1" fill-rule="evenodd"/><path fill="#c7b0e3" d="M 131.640625 36.199219 C 130.957031 36.546875 130.566406 37.285156 130.019531 37.800781 C 127.621094 40.601562 125.050781 43.28125 123.003906 46.359375 C 122.570312 46.988281 122.023438 47.863281 122.570312 48.59375 C 123.449219 49.78125 124.839844 50.457031 126.125 51.117188 C 127.214844 51.578125 128.382812 52.1875 129.601562 52 C 130.695312 51.714844 131.027344 50.441406 131.089844 49.445312 C 131.269531 45.378906 131.785156 41.359375 132.269531 37.3125 C 132.378906 36.824219 132.347656 36.085938 131.640625 36.199219 Z M 131.640625 36.199219 " fill-opacity="1" fill-rule="evenodd"/><path fill="#532b88" d="M 146.019531 175.113281 C 146.484375 176.132812 147.019531 177.113281 147.625 178.058594 C 148.230469 179 148.902344 179.894531 149.636719 180.742188 C 150.371094 181.589844 151.160156 182.378906 152.007812 183.113281 C 152.855469 183.847656 153.75 184.515625 154.691406 185.121094 C 155.636719 185.726562 156.617188 186.261719 157.636719 186.726562 C 158.65625 187.191406 159.703125 187.582031 160.78125 187.894531 C 161.855469 188.210938 162.949219 188.445312 164.058594 188.601562 C 165.167969 188.761719 166.28125 188.839844 167.402344 188.835938 C 170.785156 188.84375 174.011719 188.136719 177.085938 186.726562 L 242.21875 157.066406 C 242.917969 156.75 243.597656 156.394531 244.265625 156.007812 C 244.929688 155.621094 245.574219 155.203125 246.195312 154.753906 C 246.820312 154.304688 247.421875 153.824219 247.996094 153.316406 C 248.574219 152.808594 249.125 152.269531 249.648438 151.707031 C 250.171875 151.144531 250.667969 150.558594 251.132812 149.945312 C 251.597656 149.335938 252.035156 148.699219 252.4375 148.046875 C 252.839844 147.390625 253.210938 146.71875 253.550781 146.027344 C 253.886719 145.335938 254.191406 144.632812 254.457031 143.910156 C 254.726562 143.191406 254.957031 142.457031 255.15625 141.714844 C 255.351562 140.96875 255.511719 140.21875 255.632812 139.460938 C 255.753906 138.699219 255.839844 137.9375 255.886719 137.167969 C 255.933594 136.402344 255.941406 135.632812 255.914062 134.867188 C 255.886719 134.097656 255.820312 133.332031 255.71875 132.570312 C 255.613281 131.808594 255.472656 131.050781 255.292969 130.304688 C 255.117188 129.554688 254.902344 128.820312 254.652344 128.089844 C 254.402344 127.363281 254.117188 126.652344 253.796875 125.953125 L 252.371094 122.851562 C 252.054688 122.152344 251.703125 121.46875 251.316406 120.804688 C 250.929688 120.140625 250.511719 119.496094 250.066406 118.871094 C 249.617188 118.246094 249.136719 117.648438 248.628906 117.070312 C 248.121094 116.492188 247.585938 115.941406 247.023438 115.417969 C 246.464844 114.894531 245.878906 114.398438 245.265625 113.929688 C 244.65625 113.464844 244.023438 113.027344 243.371094 112.625 C 242.714844 112.21875 242.046875 111.847656 241.355469 111.507812 C 240.664062 111.171875 239.960938 110.867188 239.238281 110.597656 C 238.519531 110.328125 237.789062 110.09375 237.046875 109.898438 C 236.304688 109.699219 235.550781 109.539062 234.792969 109.414062 C 234.035156 109.292969 233.273438 109.207031 232.503906 109.15625 C 231.738281 109.109375 230.96875 109.097656 230.203125 109.125 C 229.433594 109.152344 228.667969 109.214844 227.90625 109.316406 C 227.144531 109.417969 226.390625 109.558594 225.640625 109.734375 C 224.894531 109.910156 224.15625 110.125 223.429688 110.371094 C 222.703125 110.621094 221.988281 110.90625 221.289062 111.222656 L 156.207031 140.914062 C 155.507812 141.234375 154.828125 141.585938 154.164062 141.972656 C 153.5 142.359375 152.855469 142.773438 152.230469 143.222656 C 151.605469 143.671875 151.007812 144.152344 150.429688 144.660156 C 149.855469 145.167969 149.304688 145.703125 148.78125 146.265625 C 148.253906 146.828125 147.761719 147.414062 147.292969 148.023438 C 146.828125 148.636719 146.390625 149.265625 145.988281 149.921875 C 145.582031 150.574219 145.210938 151.246094 144.875 151.9375 C 144.535156 152.625 144.234375 153.332031 143.964844 154.050781 C 143.695312 154.769531 143.460938 155.503906 143.265625 156.246094 C 143.066406 156.988281 142.90625 157.738281 142.785156 158.496094 C 142.660156 159.253906 142.574219 160.019531 142.527344 160.785156 C 142.476562 161.550781 142.46875 162.320312 142.496094 163.085938 C 142.523438 163.855469 142.585938 164.621094 142.6875 165.382812 C 142.792969 166.144531 142.929688 166.898438 143.105469 167.644531 C 143.28125 168.394531 143.496094 169.132812 143.746094 169.859375 C 143.992188 170.585938 144.277344 171.296875 144.597656 171.996094 Z M 224.070312 117.355469 C 226.261719 116.351562 228.5625 115.847656 230.972656 115.847656 C 233.011719 115.855469 234.984375 116.21875 236.890625 116.9375 C 238.972656 117.707031 240.824219 118.847656 242.453125 120.355469 C 244.078125 121.867188 245.351562 123.632812 246.273438 125.652344 L 247.695312 128.765625 C 247.925781 129.269531 248.125 129.777344 248.304688 130.300781 C 248.480469 130.820312 248.628906 131.347656 248.753906 131.882812 C 248.878906 132.417969 248.980469 132.957031 249.050781 133.503906 C 249.121094 134.046875 249.167969 134.59375 249.183594 135.144531 C 249.203125 135.695312 249.195312 136.242188 249.15625 136.792969 C 249.121094 137.339844 249.058594 137.886719 248.96875 138.429688 C 248.878906 138.972656 248.761719 139.507812 248.621094 140.039062 C 248.476562 140.570312 248.308594 141.09375 248.113281 141.605469 C 247.921875 142.121094 247.703125 142.625 247.457031 143.117188 C 247.214844 143.609375 246.949219 144.089844 246.65625 144.554688 C 246.367188 145.023438 246.050781 145.472656 245.71875 145.910156 C 245.382812 146.34375 245.027344 146.761719 244.648438 147.164062 C 244.273438 147.566406 243.878906 147.945312 243.464844 148.308594 C 243.050781 148.667969 242.621094 149.011719 242.171875 149.328125 C 241.722656 149.648438 241.261719 149.945312 240.785156 150.21875 C 240.308594 150.492188 239.820312 150.742188 239.320312 150.96875 L 214.484375 162.3125 C 214.976562 159.5625 215.097656 156.800781 214.84375 154.019531 C 214.589844 151.238281 213.976562 148.539062 212.996094 145.925781 C 212.347656 144.148438 211.550781 142.4375 210.601562 140.796875 C 209.65625 139.15625 208.574219 137.613281 207.359375 136.160156 C 206.144531 134.710938 204.8125 133.375 203.363281 132.15625 C 201.914062 130.9375 200.371094 129.851562 198.734375 128.902344 Z M 150.34375 156.414062 C 151.105469 154.324219 152.242188 152.464844 153.75 150.835938 C 155.261719 149.203125 157.03125 147.929688 159.058594 147.015625 L 190.542969 132.65625 C 192.402344 133.238281 194.171875 134.027344 195.847656 135.023438 C 197.523438 136.019531 199.0625 137.191406 200.464844 138.546875 C 201.871094 139.902344 203.097656 141.398438 204.152344 143.039062 C 205.207031 144.675781 206.0625 146.417969 206.710938 148.253906 C 207.765625 151.117188 208.277344 154.074219 208.246094 157.128906 C 208.214844 160.179688 207.640625 163.125 206.527344 165.964844 L 174.304688 180.628906 C 173.804688 180.855469 173.296875 181.054688 172.777344 181.234375 C 172.257812 181.410156 171.730469 181.5625 171.199219 181.6875 C 170.664062 181.8125 170.125 181.914062 169.582031 181.984375 C 169.039062 182.058594 168.492188 182.101562 167.945312 182.121094 C 167.398438 182.140625 166.847656 182.132812 166.300781 182.097656 C 165.753906 182.0625 165.210938 182.003906 164.667969 181.914062 C 164.128906 181.828125 163.589844 181.710938 163.0625 181.570312 C 162.53125 181.429688 162.007812 181.261719 161.496094 181.070312 C 160.980469 180.878906 160.480469 180.664062 159.988281 180.421875 C 159.496094 180.179688 159.015625 179.914062 158.546875 179.625 C 158.082031 179.335938 157.632812 179.027344 157.195312 178.695312 C 156.757812 178.363281 156.339844 178.007812 155.941406 177.632812 C 155.539062 177.261719 155.15625 176.867188 154.792969 176.457031 C 154.429688 176.042969 154.089844 175.617188 153.769531 175.171875 C 153.449219 174.726562 153.148438 174.265625 152.875 173.792969 C 152.597656 173.320312 152.347656 172.832031 152.121094 172.332031 L 150.695312 169.214844 C 149.773438 167.195312 149.277344 165.078125 149.203125 162.859375 C 149.132812 160.636719 149.488281 158.492188 150.277344 156.414062 Z M 150.34375 156.414062 " fill-opacity="1" fill-rule="nonzero"/><path fill="#532b88" d="M 167.785156 159.632812 L 167.886719 159.632812 C 168.339844 159.617188 168.769531 159.519531 169.179688 159.332031 C 169.589844 159.144531 169.945312 158.886719 170.253906 158.554688 C 170.558594 158.226562 170.789062 157.847656 170.941406 157.425781 C 171.09375 157 171.160156 156.5625 171.136719 156.113281 L 171.136719 153.414062 L 192.25 143.796875 C 192.65625 143.613281 193.007812 143.359375 193.3125 143.03125 C 193.613281 142.707031 193.84375 142.335938 194 141.921875 C 194.15625 141.503906 194.226562 141.074219 194.210938 140.628906 C 194.195312 140.1875 194.09375 139.761719 193.910156 139.355469 C 193.726562 138.953125 193.46875 138.597656 193.144531 138.296875 C 192.820312 137.992188 192.449219 137.761719 192.03125 137.609375 C 191.617188 137.453125 191.1875 137.382812 190.742188 137.398438 C 190.296875 137.414062 189.875 137.515625 189.46875 137.699219 L 166.347656 148.238281 C 165.734375 148.515625 165.25 148.941406 164.894531 149.507812 C 164.539062 150.078125 164.367188 150.699219 164.386719 151.371094 L 164.519531 156.296875 C 164.523438 156.734375 164.605469 157.152344 164.769531 157.554688 C 164.9375 157.957031 165.171875 158.316406 165.476562 158.628906 C 165.78125 158.9375 166.132812 159.179688 166.535156 159.355469 C 166.933594 159.527344 167.351562 159.621094 167.785156 159.632812 Z M 167.785156 159.632812 " fill-opacity="1" fill-rule="nonzero"/><path fill="#532b88" d="M 165.039062 173.355469 C 165.484375 173.355469 165.910156 173.269531 166.320312 173.101562 C 166.730469 172.929688 167.09375 172.6875 167.410156 172.375 C 167.722656 172.058594 167.964844 171.695312 168.136719 171.285156 C 168.304688 170.875 168.390625 170.449219 168.390625 170.003906 L 168.390625 164.589844 C 168.390625 164.148438 168.304688 163.71875 168.136719 163.308594 C 167.964844 162.898438 167.722656 162.535156 167.410156 162.222656 C 167.09375 161.90625 166.730469 161.664062 166.320312 161.496094 C 165.910156 161.324219 165.484375 161.242188 165.039062 161.242188 C 164.59375 161.242188 164.167969 161.324219 163.757812 161.496094 C 163.347656 161.664062 162.984375 161.90625 162.667969 162.222656 C 162.355469 162.535156 162.113281 162.898438 161.941406 163.308594 C 161.773438 163.71875 161.6875 164.148438 161.6875 164.589844 L 161.6875 170.003906 C 161.6875 170.449219 161.773438 170.875 161.941406 171.285156 C 162.113281 171.695312 162.355469 172.058594 162.667969 172.375 C 162.984375 172.6875 163.347656 172.929688 163.757812 173.101562 C 164.167969 173.269531 164.59375 173.355469 165.039062 173.355469 Z M 165.039062 173.355469 " fill-opacity="1" fill-rule="nonzero"/><path fill="#532b88" d="M 219.648438 108.476562 L 224.171875 103.449219 C 223.015625 102.40625 221.773438 101.492188 220.433594 100.699219 L 186.921875 80.710938 L 158.90625 64.105469 C 158.246094 63.714844 157.566406 63.355469 156.871094 63.027344 C 156.171875 62.703125 155.460938 62.414062 154.738281 62.15625 C 154.011719 61.902344 153.277344 61.683594 152.53125 61.5 C 151.785156 61.316406 151.03125 61.167969 150.269531 61.058594 C 149.507812 60.953125 148.742188 60.878906 147.976562 60.847656 C 147.207031 60.8125 146.441406 60.816406 145.671875 60.855469 C 144.902344 60.898438 144.140625 60.976562 143.378906 61.09375 C 142.621094 61.210938 141.867188 61.363281 141.125 61.554688 C 140.378906 61.746094 139.644531 61.972656 138.921875 62.234375 C 138.199219 62.496094 137.492188 62.796875 136.800781 63.128906 C 136.105469 63.460938 135.429688 63.824219 134.773438 64.222656 C 134.117188 64.621094 133.480469 65.050781 132.863281 65.511719 C 132.25 65.976562 131.660156 66.464844 131.09375 66.984375 C 130.523438 67.503906 129.984375 68.050781 129.472656 68.621094 C 128.957031 69.195312 128.476562 69.789062 128.019531 70.410156 C 127.566406 71.03125 127.144531 71.671875 126.75 72.332031 L 125.074219 75.28125 C 124.683594 75.941406 124.328125 76.617188 124.003906 77.308594 C 123.679688 78 123.390625 78.707031 123.132812 79.429688 C 122.878906 80.152344 122.660156 80.882812 122.476562 81.625 C 122.292969 82.371094 122.144531 83.121094 122.035156 83.878906 C 121.925781 84.632812 121.851562 85.394531 121.816406 86.160156 C 121.78125 86.925781 121.78125 87.6875 121.820312 88.453125 C 121.859375 89.21875 121.9375 89.976562 122.050781 90.734375 C 122.164062 91.492188 122.3125 92.242188 122.5 92.984375 C 122.6875 93.726562 122.910156 94.457031 123.167969 95.175781 C 123.425781 95.898438 123.71875 96.601562 124.046875 97.292969 C 124.375 97.984375 124.734375 98.660156 125.128906 99.316406 C 125.523438 99.972656 125.949219 100.609375 126.402344 101.222656 C 126.859375 101.835938 127.34375 102.429688 127.855469 102.996094 C 128.371094 103.5625 128.910156 104.105469 129.476562 104.617188 C 130.042969 105.132812 130.632812 105.617188 131.246094 106.074219 C 131.863281 106.53125 132.496094 106.957031 133.152344 107.351562 L 160.933594 123.890625 L 164.367188 118.144531 L 136.652344 101.589844 C 136.183594 101.304688 135.730469 101 135.289062 100.675781 C 134.851562 100.347656 134.425781 100 134.019531 99.632812 C 133.613281 99.261719 133.226562 98.875 132.859375 98.46875 C 132.492188 98.0625 132.144531 97.640625 131.816406 97.199219 C 131.488281 96.761719 131.183594 96.304688 130.902344 95.835938 C 130.621094 95.367188 130.363281 94.882812 130.125 94.386719 C 129.890625 93.894531 129.679688 93.386719 129.496094 92.871094 C 129.308594 92.355469 129.148438 91.832031 129.011719 91.300781 C 128.878906 90.769531 128.769531 90.234375 128.6875 89.691406 C 128.605469 89.148438 128.546875 88.605469 128.519531 88.058594 C 128.488281 87.511719 128.488281 86.964844 128.511719 86.414062 C 128.535156 85.867188 128.585938 85.324219 128.664062 84.78125 C 128.742188 84.238281 128.84375 83.699219 128.976562 83.167969 C 129.105469 82.632812 129.261719 82.109375 129.441406 81.59375 C 129.625 81.074219 129.828125 80.566406 130.058594 80.070312 C 130.289062 79.574219 130.546875 79.089844 130.824219 78.617188 L 132.5 75.683594 C 132.78125 75.214844 133.085938 74.757812 133.414062 74.320312 C 133.738281 73.878906 134.085938 73.457031 134.457031 73.050781 C 134.824219 72.644531 135.210938 72.257812 135.617188 71.890625 C 136.023438 71.519531 136.445312 71.171875 136.886719 70.847656 C 137.328125 70.519531 137.78125 70.214844 138.25 69.933594 C 138.722656 69.648438 139.203125 69.390625 139.699219 69.15625 C 140.195312 68.921875 140.699219 68.710938 141.214844 68.523438 C 141.730469 68.335938 142.253906 68.175781 142.785156 68.042969 C 143.316406 67.90625 143.851562 67.800781 144.394531 67.714844 C 144.9375 67.632812 145.480469 67.578125 146.027344 67.550781 C 146.578125 67.519531 147.125 67.515625 147.671875 67.542969 C 148.21875 67.566406 148.765625 67.617188 149.308594 67.695312 C 149.851562 67.769531 150.386719 67.875 150.921875 68.003906 C 151.453125 68.136719 151.976562 68.289062 152.496094 68.472656 C 153.011719 68.652344 153.519531 68.859375 154.015625 69.089844 C 154.515625 69.320312 155 69.574219 155.472656 69.851562 L 177.085938 82.738281 C 173.472656 84.988281 170.476562 87.882812 168.105469 91.417969 C 163.078125 98.707031 161.320312 107.722656 163.347656 114.875 L 169.796875 113.050781 C 168.304688 107.789062 169.796875 100.75 173.636719 95.136719 C 174.882812 93.253906 176.382812 91.597656 178.132812 90.167969 C 179.886719 88.738281 181.808594 87.605469 183.90625 86.757812 L 216.914062 106.414062 C 217.894531 107.011719 218.804688 107.695312 219.648438 108.476562 Z M 219.648438 108.476562 " fill-opacity="1" fill-rule="nonzero"/><path fill="#532b88" d="M 185.308594 99.136719 L 188.558594 93.277344 L 212.179688 106.375 L 208.929688 112.238281 Z M 185.308594 99.136719 " fill-opacity="1" fill-rule="nonzero"/><g clip-path="url(#a775a9c721)"><path fill="#532b88" d="M 343.152344 255.535156 C 338.257812 250.988281 326.160156 246.632812 297.851562 262.355469 C 285.597656 269.988281 278.960938 274.894531 275.609375 277.605469 C 273.457031 279.339844 270.820312 280.371094 268.058594 280.5625 C 253.316406 281.585938 206.75 286.078125 190.792969 285.761719 C 188.464844 285.714844 187.679688 282.574219 189.242188 281.347656 C 190.414062 280.433594 192.210938 279.980469 194.773438 279.183594 C 203.828125 276.355469 254.136719 276.59375 253.035156 257.773438 C 251.976562 239.726562 215.90625 246.378906 205.203125 248.664062 C 201.050781 249.546875 196.425781 250.242188 192.152344 250.757812 C 192.152344 250.757812 176.632812 251.4375 168.996094 249.613281 C 153.078125 245.453125 119.59375 238.703125 98.4375 255.84375 C 81.394531 269.644531 73.832031 278.746094 70.535156 283.707031 C 68.308594 287.058594 65.253906 289.773438 61.6875 291.632812 L 31.882812 312.613281 C 30.3125 313.714844 30.117188 315.964844 31.476562 317.324219 L 64.707031 350.558594 L 80.398438 366.246094 C 81.734375 367.578125 83.9375 367.417969 85.0625 365.898438 C 91.789062 356.800781 115.859375 330.15625 166.039062 331.773438 C 226.484375 333.722656 226.875 332.550781 240.136719 325.53125 C 250.539062 320.027344 275.292969 311.164062 285.46875 307.601562 C 288.464844 306.554688 291.25 304.988281 293.699219 302.972656 L 342.824219 262.625 C 345.105469 260.871094 345.257812 257.492188 343.152344 255.535156 " fill-opacity="1" fill-rule="nonzero"/></g><g clip-path="url(#db05d4894a)"><path fill="#532b88" d="M 250.136719 243.621094 C 251.691406 244.492188 253.050781 245.511719 254.195312 246.65625 C 254.902344 247.359375 255.535156 248.121094 256.089844 248.921875 C 259.695312 247.210938 263.722656 245.394531 268.066406 243.519531 L 268.128906 243.492188 C 279.039062 239.414062 288.445312 237.234375 296.140625 237 C 293.625 235.664062 290.484375 234.878906 286.761719 234.65625 C 278.886719 234.1875 268.644531 236.285156 256.3125 240.894531 C 254.175781 241.816406 252.101562 242.734375 250.136719 243.621094 " fill-opacity="1" fill-rule="nonzero"/></g><path fill="#532b88" d="M 243.699219 274.980469 C 246.589844 274.761719 249.355469 274.542969 251.929688 274.34375 L 251.960938 274.339844 C 258.863281 273.804688 264.824219 273.339844 268.628906 273.101562 C 269.273438 273.058594 269.921875 272.929688 270.550781 272.710938 C 271.359375 272.4375 272.097656 272.03125 272.75 271.507812 C 276.195312 268.726562 282.824219 263.859375 294.835938 256.417969 L 294.972656 256.339844 L 295.082031 256.273438 C 298.515625 254.386719 301.863281 252.707031 305.035156 251.289062 C 308.171875 249.945312 311.175781 248.847656 313.976562 248.027344 C 314.363281 247.914062 314.75 247.800781 315.140625 247.695312 C 314.691406 247.308594 314.207031 246.941406 313.699219 246.609375 C 310.832031 244.726562 307 243.695312 302.3125 243.539062 C 294.816406 243.292969 285.257812 245.292969 273.894531 249.480469 C 268.71875 251.691406 264.050781 253.796875 260.007812 255.75 C 260.023438 255.933594 260.035156 256.113281 260.046875 256.289062 C 260.582031 264.597656 255.085938 270.878906 243.699219 274.980469 " fill-opacity="1" fill-rule="nonzero"/></svg>